<?xml version="1.0" encoding="utf-8"?>
<!-- Generator: Adobe Illustrator 16.0.0, SVG Export Plug-In . SVG Version: 6.00 Build 0)  -->
<!DOCTYPE svg PUBLIC "-//W3C//DTD SVG 1.1//EN" "http://www.w3.org/Graphics/SVG/1.1/DTD/svg11.dtd">
<svg version="1.1" id="Layer_1" xmlns="http://www.w3.org/2000/svg" xmlns:xlink="http://www.w3.org/1999/xlink" x="0px" y="0px"
	 width="526px" height="65.5px" viewBox="0 0 526 65.5" enable-background="new 0 0 526 65.5" xml:space="preserve">
<g>
	<defs>
		<rect id="SVGID_1_" x="-121" y="-178.5" width="800" height="600"/>
	</defs>
	<clipPath id="SVGID_2_">
		<use xlink:href="#SVGID_1_"  overflow="visible"/>
	</clipPath>
	<path clip-path="url(#SVGID_2_)" fill="#C53C02" d="M48.013,11.092c0.922,0.396,1.715,0.915,2.381,1.559
		c0.664,0.645,1.2,1.413,1.608,2.307s0.612,1.839,0.612,2.837v36.316c0,0.333-0.119,0.613-0.354,0.841
		c-0.236,0.229-0.526,0.343-0.869,0.343h-8.944c-0.344,0-0.622-0.114-0.836-0.343c-0.216-0.228-0.322-0.508-0.322-0.841V21.1h-7.207
		v33.011c0,0.333-0.108,0.613-0.322,0.841c-0.215,0.229-0.493,0.343-0.836,0.343h-8.108c-0.344,0-0.633-0.114-0.869-0.343
		c-0.236-0.228-0.354-0.508-0.354-0.841V21.1h-7.206v33.011c0,0.79-0.409,1.184-1.223,1.184h-8.88c-0.815,0-1.222-0.394-1.222-1.184
		V11.684c0-0.789,0.407-1.184,1.222-1.184h38.801C46.115,10.5,47.09,10.697,48.013,11.092"/>
	<path clip-path="url(#SVGID_2_)" fill="#751B00" d="M48.013,11.092c0.922,0.396,1.715,0.915,2.381,1.559
		c0.664,0.645,1.2,1.413,1.608,2.307s0.612,1.839,0.612,2.837v3.237L41.289,21.1h-7.207H23.593h-7.206L5.062,21.032v-9.348
		c0-0.789,0.407-1.184,1.222-1.184h38.801C46.115,10.5,47.09,10.697,48.013,11.092"/>
	<path clip-path="url(#SVGID_2_)" fill="#265A8F" d="M91.613,44.421c0.363,0,0.658,0.118,0.886,0.352
		c0.227,0.235,0.341,0.523,0.341,0.864v8.448c0,0.342-0.114,0.63-0.341,0.864c-0.228,0.235-0.523,0.352-0.886,0.352H60.979
		c-0.864,0-1.295-0.405-1.295-1.216V11.716c0-0.81,0.431-1.216,1.295-1.216h9.407c0.863,0,1.295,0.406,1.295,1.216v31.553
		c0,0.342,0.125,0.619,0.375,0.832c0.249,0.214,0.556,0.32,0.92,0.32H91.613z"/>
	<path clip-path="url(#SVGID_2_)" fill="#162F51" d="M71.583,55.301H60.976c-0.862,0-1.292-0.405-1.292-1.216V11.716
		c0-0.81,0.43-1.216,1.292-1.216h9.385c0.861,0,1.293,0.406,1.293,1.216v31.553C71.654,43.611,71.583,55.301,71.583,55.301"/>
	<path clip-path="url(#SVGID_2_)" fill="#FDEE00" d="M138.698,10.5c0.365,0,0.674,0.118,0.925,0.353
		c0.251,0.236,0.377,0.525,0.377,0.866v42.489c0,0.343-0.126,0.632-0.377,0.867c-0.251,0.236-0.56,0.353-0.925,0.353h-9.528
		c-0.367,0-0.675-0.117-0.926-0.353c-0.251-0.235-0.377-0.524-0.377-0.867V39.382c0-0.342-0.114-0.62-0.343-0.834
		c-0.229-0.214-0.525-0.321-0.891-0.321h-13.365c-0.366,0-0.675,0.107-0.926,0.321c-0.251,0.214-0.377,0.492-0.377,0.834v14.826
		c0,0.814-0.434,1.22-1.302,1.22h-9.46c-0.868,0-1.302-0.406-1.302-1.22V11.719c0-0.812,0.434-1.219,1.302-1.219h9.46
		c0.868,0,1.302,0.407,1.302,1.219v14.377c0,0.814,0.434,1.22,1.303,1.22h13.365c0.366,0,0.662-0.117,0.891-0.353
		c0.229-0.235,0.343-0.524,0.343-0.867V11.719c0-0.341,0.126-0.63,0.377-0.866c0.251-0.235,0.559-0.353,0.926-0.353H138.698z"/>
	<path clip-path="url(#SVGID_2_)" fill="#ECC700" d="M111.965,39.382v14.826c0,0.813-0.435,1.22-1.302,1.22h-9.46
		c-0.869,0-1.303-0.407-1.303-1.22V11.719c0-0.812,0.434-1.219,1.303-1.219h9.46c0.867,0,1.302,0.407,1.302,1.219v14.377V39.382z"/>
	<path clip-path="url(#SVGID_2_)" fill="#ECC700" d="M138.698,10.5c0.365,0,0.674,0.118,0.925,0.353
		c0.251,0.236,0.377,0.524,0.377,0.866v42.489c0,0.343-0.126,0.632-0.377,0.867s-0.56,0.353-0.925,0.353h-9.528
		c-0.367,0-0.675-0.118-0.926-0.353s-0.377-0.524-0.377-0.867V39.382V26.096V11.719c0-0.342,0.126-0.63,0.377-0.866
		c0.251-0.235,0.559-0.353,0.926-0.353H138.698z"/>
	<line clip-path="url(#SVGID_2_)" fill="none" stroke="#ADB2B7" stroke-miterlimit="10" x1="158" y1="1.5" x2="158" y2="64.5"/>
	<polygon clip-path="url(#SVGID_2_)" fill="#353535" points="181.324,13.583 181.324,31.123 201.272,31.123 201.272,13.583 
		206.658,13.583 206.658,55.5 201.272,55.5 201.272,35.847 181.324,35.847 181.324,55.5 176,55.5 176,13.583 	"/>
	<path clip-path="url(#SVGID_2_)" fill="#353535" d="M232.354,55.5l-0.649-4.404h-0.184c-1.652,2.324-4.833,4.404-9.056,4.404
		c-5.997,0-9.056-4.222-9.056-8.505c0-7.16,6.363-11.076,17.805-11.014v-0.613c0-2.446-0.672-6.853-6.731-6.853
		c-2.753,0-5.628,0.857-7.708,2.202l-1.226-3.548c2.449-1.592,5.999-2.631,9.731-2.631c9.056,0,11.258,6.179,11.258,12.116v11.076
		c0,2.569,0.343,5.75,0.712,7.77H232.354z M231.339,39.712c-5.875-0.122-12.546,0.919-12.546,6.669c0,3.488,2.327,5.142,5.08,5.142
		c3.854,0,6.303-2.449,7.16-4.957c0.181-0.551,0.306-1.164,0.306-1.714V39.712z"/>
	<path clip-path="url(#SVGID_2_)" fill="#353535" d="M245.246,34.451c0-3.488-0.06-6.487-0.244-9.24h4.711l0.184,5.812h0.244
		c1.346-3.976,4.589-6.485,8.199-6.485c0.613,0,1.042,0.06,1.53,0.182v5.08c-0.551-0.122-1.101-0.185-1.834-0.185
		c-3.794,0-6.487,2.878-7.222,6.916c-0.122,0.735-0.244,1.59-0.244,2.509V55.5h-5.324V34.451z"/>
	<path clip-path="url(#SVGID_2_)" fill="#353535" d="M290.234,11.381v35.798c0,2.631,0.062,6.3,0.244,8.321h-4.833l-0.244-5.812
		h-0.122c-1.655,3.303-5.266,5.812-10.098,5.812c-7.16,0-12.668-6.059-12.668-15.053c-0.06-9.853,6.059-15.909,13.279-15.909
		c4.529,0,7.588,2.14,8.937,4.527h0.122V11.381H290.234z M284.851,37.266c0-0.675-0.062-1.592-0.247-2.265
		c-0.794-3.428-3.732-6.243-7.771-6.243c-5.568,0-8.874,4.896-8.874,11.445c0,5.997,2.937,10.952,8.752,10.952
		c3.61,0,6.913-2.387,7.893-6.425c0.185-0.735,0.247-1.467,0.247-2.324V37.266z"/>
	<path clip-path="url(#SVGID_2_)" fill="#353535" d="M301.328,25.211l3.916,15.394c0.856,3.379,1.651,6.51,2.202,9.639h0.185
		c0.673-3.068,1.651-6.321,2.631-9.575l4.833-15.458h4.529l4.589,15.145c1.101,3.628,1.958,6.82,2.631,9.888h0.184
		c0.491-3.068,1.286-6.26,2.266-9.827l4.223-15.206h5.324L329.293,55.5h-4.896l-4.53-14.456c-1.038-3.379-1.896-6.383-2.63-9.95
		h-0.123c-0.734,3.628-1.65,6.757-2.692,10.013L309.648,55.5h-4.895l-8.935-30.289H301.328z"/>
	<path clip-path="url(#SVGID_2_)" fill="#353535" d="M360.404,55.5l-0.429-4.404h-0.185c-1.651,2.324-4.833,4.404-9.056,4.404
		c-5.996,0-9.056-4.222-9.056-8.505c0-7.16,6.362-11.076,17.806-11.014v-0.613c0-2.446-0.674-6.853-6.729-6.853
		c-2.755,0-5.63,0.857-7.711,2.202l-1.225-3.548c2.448-1.592,5.995-2.631,9.73-2.631c9.056,0,11.258,6.179,11.258,12.116v11.076
		c0,2.569,0.122,5.75,0.491,7.77H360.404z M359.606,39.712c-5.875-0.122-12.544,0.919-12.544,6.669c0,3.488,2.327,5.142,5.08,5.142
		c3.854,0,6.304-2.449,7.16-4.957c0.183-0.551,0.304-1.164,0.304-1.714V39.712z"/>
	<path clip-path="url(#SVGID_2_)" fill="#353535" d="M373.514,34.451c0-3.488-0.061-6.487-0.244-9.24h4.711l0.184,5.812h0.244
		c1.346-3.976,4.589-6.485,8.199-6.485c0.613,0,1.042,0.06,1.53,0.182v5.08c-0.552-0.122-1.102-0.185-1.834-0.185
		c-3.794,0-6.487,2.878-7.223,6.916c-0.122,0.735-0.244,1.59-0.244,2.509V55.5h-5.323V34.451z"/>
	<path clip-path="url(#SVGID_2_)" fill="#353535" d="M395.923,40.999c0.122,7.282,4.771,10.279,10.157,10.279
		c3.854,0,6.181-0.673,8.199-1.53l0.919,3.857c-1.899,0.857-5.141,1.836-9.854,1.836c-9.118,0-14.564-5.999-14.564-14.933
		c0-8.934,5.265-15.97,13.892-15.97c9.669,0,12.24,8.506,12.24,13.952c0,1.101-0.125,1.958-0.186,2.509H395.923z M411.71,37.142
		c0.061-3.426-1.408-8.749-7.466-8.749c-5.446,0-7.833,5.017-8.262,8.749H411.71z"/>
	<polygon clip-path="url(#SVGID_2_)" fill="#353535" points="436.76,13.583 442.084,13.583 442.084,50.907 459.707,50.907 
		459.707,55.44 436.76,55.44 	"/>
	<path clip-path="url(#SVGID_2_)" fill="#353535" d="M481.875,55.5l-0.428-4.404h-0.186c-1.65,2.324-4.833,4.404-9.056,4.404
		c-5.996,0-9.055-4.222-9.055-8.505c0-7.16,6.361-11.076,17.805-11.014v-0.613c0-2.446-0.673-6.853-6.729-6.853
		c-2.757,0-5.632,0.857-7.712,2.202l-1.225-3.548c2.448-1.592,5.996-2.631,9.731-2.631c9.056,0,11.258,6.179,11.258,12.116v11.076
		c0,2.569,0.122,5.75,0.491,7.77H481.875z M481.078,39.712c-5.875-0.122-12.544,0.919-12.544,6.669c0,3.488,2.327,5.142,5.08,5.142
		c3.854,0,6.303-2.449,7.16-4.957c0.182-0.551,0.304-1.164,0.304-1.714V39.712z"/>
	<path clip-path="url(#SVGID_2_)" fill="#353535" d="M494.74,55.5c0.122-2.021,0.244-5.69,0.244-8.321V11.381h5.324v18.603h0.122
		c1.897-3.306,5.324-5.446,10.097-5.446c7.342,0,12.544,6.118,12.484,15.112c0,10.588-6.671,15.85-13.278,15.85
		c-4.285,0-7.711-1.652-9.916-5.568h-0.182l-0.244,5.568H494.74z M500.309,42.956c0,0.673,0.122,1.345,0.244,1.958
		c1.041,3.732,4.163,6.303,8.079,6.303c5.628,0,8.993-4.589,8.993-11.383c0-5.934-3.059-11.014-8.812-11.014
		c-3.672,0-7.097,2.509-8.199,6.61c-0.122,0.61-0.306,1.345-0.306,2.202V42.956z"/>
</g>
</svg>
