<?xml version="1.0" encoding="utf-8"?>
<!-- Generator: Adobe Illustrator 20.1.0, SVG Export Plug-In . SVG Version: 6.00 Build 0)  -->
<svg version="1.1" id="Layer_4" xmlns="http://www.w3.org/2000/svg" xmlns:xlink="http://www.w3.org/1999/xlink" x="0px" y="0px"
	 viewBox="0 0 169.8 145.6" style="enable-background:new 0 0 169.8 145.6;" xml:space="preserve">
<style type="text/css">
	.st0{display:none;}
	.st1{display:inline;fill:#4E76C3;}
	.st2{fill:#BD901E;}
	.st3{stroke:#BD901E;stroke-width:2;stroke-miterlimit:10;}
</style>
<g id="Layer_7" class="st0">
	<rect class="st1" width="169.8" height="145.6"/>
</g>
<g id="Layer_8">
</g>
<g id="Layer_5">
	<g id="Layer_6">
		<polygon points="26.9,36.4 26.9,106 86.3,140.4 144.8,106 144.8,38 86.3,3.8 		"/>
	</g>
</g>
<g id="svg3686" inkscape:version="0.92.0 r15299" sodipodi:docname="GGG2017Sticker2.svg" xmlns:cc="http://creativecommons.org/ns#" xmlns:dc="http://purl.org/dc/elements/1.1/" xmlns:inkscape="http://www.inkscape.org/namespaces/inkscape" xmlns:rdf="http://www.w3.org/1999/02/22-rdf-syntax-ns#" xmlns:sodipodi="http://sodipodi.sourceforge.net/DTD/sodipodi-0.dtd" xmlns:svg="http://www.w3.org/2000/svg">
	
		<sodipodi:namedview  bordercolor="#666666" borderopacity="1.0" id="base" inkscape:current-layer="layer1" inkscape:cx="352.02428" inkscape:cy="558.87474" inkscape:document-units="mm" inkscape:pageopacity="0.0" inkscape:pageshadow="2" inkscape:snap-text-baseline="false" inkscape:window-height="1027" inkscape:window-maximized="1" inkscape:window-width="1920" inkscape:window-x="-8" inkscape:window-y="-8" inkscape:zoom="4" pagecolor="#ffffff" showgrid="false">
		</sodipodi:namedview>
	<rect id="rect4518_32_" x="39.5" y="29.6" class="st2" width="2.8" height="18.7"/>
	<circle class="st3" cx="40.9" cy="46.3" r="2.6"/>
	
		<rect id="rect4518_1_" x="94.3" y="0.2" transform="matrix(0.4985 -0.8669 0.8669 0.4985 28.1954 94.4389)" class="st2" width="2.8" height="45.2"/>
	<circle class="st3" cx="115.1" cy="34.5" r="2.6"/>
	
		<rect id="rect4518_2_" x="80.6" y="4.7" transform="matrix(0.4985 -0.8669 0.8669 0.4985 19.429 83.6715)" class="st2" width="2.8" height="40.6"/>
	<circle class="st3" cx="97.9" cy="34.5" r="2.6"/>
	
		<rect id="rect4518_3_" x="70.6" y="12" transform="matrix(0.4985 -0.8669 0.8669 0.4985 10.748 77.1291)" class="st2" width="2.8" height="34.5"/>
	<rect id="rect4518_4_" x="84.9" y="36.7" class="st2" width="2.8" height="8.6"/>
	<rect id="rect4518_5_" x="69.3" y="42.5" class="st2" width="18.4" height="2.8"/>
	<circle class="st3" cx="67.6" cy="43.7" r="2.6"/>
	<rect id="rect4518_7_" x="47.9" y="24.9" class="st2" width="2.8" height="23.3"/>
	<circle class="st3" cx="49.3" cy="46.2" r="2.6"/>
	<polygon id="rect4518_11_" class="st2" points="52.7,25.8 54.1,23.4 59.2,26.3 59.2,29.6 	"/>
	<rect id="rect4518_10_" x="56.4" y="27.3" class="st2" width="2.8" height="16.4"/>
	<circle class="st3" cx="57.8" cy="46.2" r="2.6"/>
	<rect id="rect4518_12_" x="109.5" y="42.2" class="st2" width="35.3" height="2.8"/>
	<circle class="st3" cx="107.6" cy="43.6" r="2.6"/>
	<rect id="rect4518_13_" x="124.3" y="65.3" class="st2" width="19.5" height="2.8"/>
	<circle class="st3" cx="123.4" cy="66.7" r="2.6"/>
	<rect id="rect4518_15_" x="114.1" y="74.4" class="st2" width="33.7" height="2.8"/>
	<circle class="st3" cx="112.5" cy="75.8" r="2.6"/>
	<rect id="rect4518_14_" x="124.3" y="82.9" class="st2" width="19.5" height="2.8"/>
	<circle class="st3" cx="123.4" cy="84.3" r="2.6"/>
	<rect id="rect4518_18_" x="126.3" y="100.2" class="st2" width="17.1" height="2.8"/>
	<rect id="rect4518_8_" x="112.9" y="108.2" class="st2" width="24.6" height="2.8"/>
	<circle class="st3" cx="112.3" cy="109.6" r="2.6"/>
	<rect id="rect4518_16_" x="100.4" y="111" class="st2" width="2.8" height="21.7"/>
	<circle class="st3" cx="101.9" cy="109.6" r="2.6"/>
	<rect id="rect4518_20_" x="66.1" y="126.5" class="st2" width="25.2" height="2.8"/>
	<rect id="rect4518_19_" x="90.4" y="99.4" class="st2" width="2.7" height="30"/>
	<ellipse transform="matrix(0.7837 -0.6212 0.6212 0.7837 -43.7668 79.1315)" class="st3" cx="91.7" cy="102.4" rx="2.6" ry="2.6"/>
	<rect id="rect4518_55_" x="50.8" y="117.2" class="st2" width="16.9" height="2.8"/>
	<rect id="rect4518_54_" x="44" y="107" class="st2" width="2.8" height="9.9"/>
	<rect id="rect4518_21_" x="44" y="107" class="st2" width="20.9" height="2.8"/>
	<ellipse transform="matrix(0.7837 -0.6212 0.6212 0.7837 -52.7471 65.4556)" class="st3" cx="67.6" cy="108.5" rx="2.6" ry="2.6"/>
	<rect id="rect4518_56_" x="26.9" y="97" class="st2" width="31" height="2.8"/>
	<ellipse transform="matrix(0.867 -0.4983 0.4983 0.867 -41.3648 41.8289)" class="st3" cx="57.7" cy="98.4" rx="2.6" ry="2.6"/>
	<rect id="rect4518_58_" x="26.9" y="87.7" class="st2" width="19.5" height="2.8"/>
	<ellipse transform="matrix(0.867 -0.4983 0.4983 0.867 -37.8995 36.1841)" class="st3" cx="48.8" cy="89.1" rx="2.6" ry="2.6"/>
	<rect id="rect4518_59_" x="66.6" y="117.2" class="st2" width="11.3" height="2.8"/>
	<ellipse transform="matrix(0.867 -0.4983 0.4983 0.867 -48.8692 54.0844)" class="st3" cx="76.9" cy="118.6" rx="2.6" ry="2.6"/>
	<rect id="rect4518_60_" x="28.5" y="78.4" class="st2" width="28.4" height="2.8"/>
	<ellipse transform="matrix(0.867 -0.4983 0.4983 0.867 -32.0849 39.3521)" class="st3" cx="57.7" cy="79.8" rx="2.6" ry="2.6"/>
	<rect id="rect4518_61_" x="26.9" y="69" class="st2" width="9.7" height="2.8"/>
	<ellipse transform="matrix(0.867 -0.4983 0.4983 0.867 -29.8838 28.8565)" class="st3" cx="39.1" cy="70.4" rx="2.6" ry="2.6"/>
	<rect id="rect4518_6_" x="124.9" y="95.4" class="st2" width="2.8" height="7.7"/>
	<ellipse transform="matrix(0.867 -0.4983 0.4983 0.867 -29.7172 75.3744)" class="st3" cx="126.3" cy="93.4" rx="2.6" ry="2.6"/>
</g>
<g id="Layer_3">
	<path id="path4497_1_" class="st2" d="M148.4,108.2l0.3-71.9L86.5,0L24.1,35.5l-0.3,71.9
		l62.2,36.3L148.4,108.2z M142.2,104.6l-56.2,32L30,103.9l0.3-64.7l56.2-32l55.9,32.7L142.2,104.6z"/>
</g>
<g id="Layer_2">
	<path id="path14_1_" class="st2" d="M74.9,50.3l-0.1,3l-38.3,0l2,2.8c2,2.8,5.6,7,14.3,11.2c9.3,4.5,26.4,5.5,26.4,5.5
		s0.1,7.5,0,7.5c-0.1,0-0.8,0.1-4,1.8c-5.4,2.9-9.8,7.3-9.8,7.3l0,7.6c0,0,15.2,0.1,17.6,0c1.4-2.4,4.8-4.1,8.7-4.1
		c3.7,0,7,1.5,8.5,3.8c0.2,0.2,0.3,0.3,0.3,0.3h17.7l-0.1-6.9c0,0-1.1-1.6-3.7-3.5c-2.6-1.9-10.6-6.4-10.6-6.4v-7.5L119.5,59l16.4,0
		v-8.6L74.9,50.3"/>
</g>
<g id="Layer_9">
	<rect x="82.5" y="67.7" width="4.3" height="19"/>
	<rect x="89.7" y="67.7" width="4.3" height="19"/>
	<rect x="96.7" y="67.7" width="4.3" height="19"/>
</g>
</svg>
