<?xml version="1.0" encoding="UTF-8"?>
<svg width="544px" height="263px" viewBox="0 0 544 263" version="1.1" xmlns="http://www.w3.org/2000/svg" xmlns:xlink="http://www.w3.org/1999/xlink">
    <!-- Generator: Sketch 39.1 (31720) - http://www.bohemiancoding.com/sketch -->
    <title>Page 1</title>
    <desc>Created with Sketch.</desc>
    <defs>
        <polygon id="path-1" points="2.71050543e-20 0.3558 2.71050543e-20 56.3488 55.9916 56.3488 55.9916 0.3558 0 0.3558"></polygon>
        <polygon id="path-3" points="101.0936 0.254 0.0036 0.254 0.0036 177.9693 101.0936 177.9693 101.0936 0.254"></polygon>
        <polygon id="path-5" points="130.103 178.7732 130.103 0.2542 0.4474 0.2542 0.4474 178.7732"></polygon>
        <polygon id="path-7" points="0 263.746 543.103 263.746 543.103 1 0 1"></polygon>
    </defs>
    <g id="Page-1" stroke="none" stroke-width="1" fill="none" fill-rule="evenodd">
        <g transform="translate(0.000000, -1.000000)">
            <g id="Group-3" transform="translate(0.000000, 124.746000)">
                <mask id="mask-2" fill="white">
                    <use xlink:href="#path-1"></use>
                </mask>
                <g id="Clip-2"></g>
                <path d="M55.9916,28.3508 C55.9916,43.8118 43.4566,56.3488 27.9946,56.3488 C12.5356,56.3488 -0.0004,43.8118 -0.0004,28.3508 C-0.0004,12.8928 12.5356,0.3558 27.9946,0.3558 C43.4566,0.3558 55.9916,12.8928 55.9916,28.3508" id="Fill-1" fill="#14B04B" mask="url(#mask-2)"></path>
            </g>
            <path d="M220.1256,72.0764 L225.4486,67.4774 L257.8866,67.4774 L261.7546,72.0764 L258.6106,87.7454 L254.7376,91.1324 L216.4896,91.1324 L220.1256,72.0764 Z M266.5976,121.3894 L292.4486,99.6504 L298.4986,63.1274 L278.7046,38.3644 L214.3116,38.3644 L184.4206,63.5494 L169.5336,153.4834 L189.1276,179.5194 L261.0566,179.5374 L283.4406,153.4944 L287.0146,131.8804 L286.3916,131.8804 L256.9046,131.8804 L250.3076,131.8804 L249.2686,138.8964 L242.9856,143.4994 L210.6836,143.4324 L206.6536,138.8854 L209.4446,121.3064 L266.5976,121.3894 Z" id="Fill-4" fill="#262525"></path>
            <polygon id="Fill-6" fill="#262525" points="411.2768 131.8485 373.1108 131.9365 371.7068 140.6335 365.4278 145.2375 333.6158 145.2375 329.6148 140.7015 339.9208 76.6735 346.1928 72.0765 378.6268 72.0765 381.5568 76.6735 380.7548 85.0785 419.3428 85.1505 422.9828 63.1615 405.7998 38.3645 336.5538 38.3645 308.2198 63.1275 293.2618 153.4835 313.4358 179.5195 385.4398 179.5195 408.1068 153.4835 411.8968 131.8485 411.2768 131.8525"></polygon>
            <g id="Group-10" transform="translate(62.000000, 0.746000)">
                <mask id="mask-4" fill="white">
                    <use xlink:href="#path-3"></use>
                </mask>
                <g id="Clip-9"></g>
                <polygon id="Fill-8" fill="#262525" mask="url(#mask-4)" points="64.9806 138.2663 59.6716 142.8693 45.3876 142.8693 41.5006 138.2663 43.9836 122.0613 52.6476 71.2513 87.2176 71.2513 92.6116 37.7673 60.5676 37.7673 67.0156 0.2533 29.4976 0.2533 23.0466 37.7673 5.3986 37.7673 0.0036 71.2513 18.3036 71.2513 4.8326 152.5983 23.6916 177.9693 31.6756 177.9693 77.2846 177.9693 76.5506 177.9693 97.5046 152.7373 101.0936 131.2473 66.0156 131.2473"></polygon>
            </g>
            <g id="Group-13" transform="translate(413.000000, 0.746000)">
                <mask id="mask-6" fill="white">
                    <use xlink:href="#path-5"></use>
                </mask>
                <g id="Clip-12"></g>
                <polygon id="Fill-11" fill="#262525" mask="url(#mask-6)" points="111.3054 37.6152 70.9184 37.6152 62.7374 44.2812 57.4614 48.1512 60.1624 31.2362 65.1984 0.2542 30.0054 0.2542 0.4474 178.7732 36.3744 178.7732 51.5584 84.4082 63.6944 75.9872 87.1774 75.9872 92.3634 85.9432 77.3844 178.7732 111.4704 178.7732 130.1034 62.4152"></polygon>
            </g>
            <path d="M197.9013,212.0067 L197.9013,255.0857 L200.3443,255.0857 C204.0933,255.0857 207.4983,254.7157 210.5583,253.9757 C213.6173,253.2357 216.3933,252.0507 218.8853,250.4227 C221.3773,248.7937 223.3263,246.5487 224.7333,243.6867 C226.1393,240.8247 226.8423,237.4447 226.8423,233.5457 C226.8423,229.5987 226.1393,226.1947 224.7333,223.3317 C223.3263,220.4707 221.3653,218.2367 218.8483,216.6327 C216.3323,215.0297 213.5563,213.8577 210.5213,213.1167 C207.4863,212.3767 204.0933,212.0067 200.3443,212.0067 L197.9013,212.0067 Z M190.9433,261.4507 L190.9433,205.6407 L202.4903,205.6407 C211.5213,205.6407 218.9963,208.0227 224.9183,212.7837 C230.8393,217.5467 233.8003,224.3677 233.8003,233.2497 C233.8003,242.3797 230.8643,249.3617 224.9923,254.1967 C219.1193,259.0337 211.5453,261.4507 202.2683,261.4507 L190.9433,261.4507 Z" id="Fill-14" fill="#757575"></path>
            <path d="M250.3799,249.5712 C254.7719,253.9382 260.0029,256.1222 266.0719,256.1222 C272.1419,256.1222 277.3719,253.9382 281.7639,249.5712 C286.1559,245.2042 288.3519,239.8632 288.3519,233.5462 C288.3519,227.2802 286.2419,221.9502 282.0229,217.5582 C277.8039,213.1672 272.4859,210.9702 266.0719,210.9702 C259.6569,210.9702 254.3399,213.1672 250.1209,217.5582 C245.9019,221.9502 243.7929,227.2802 243.7929,233.5462 C243.7929,239.8632 245.9869,245.2042 250.3799,249.5712 M245.4579,213.0062 C251.2059,207.3062 258.0779,204.4572 266.0719,204.4572 C274.0659,204.4572 280.9369,207.3062 286.6859,213.0062 C292.4339,218.7052 295.3089,225.5512 295.3089,233.5462 C295.3089,241.7882 292.4709,248.6952 286.7969,254.2712 C281.1229,259.8482 274.2139,262.6352 266.0719,262.6352 C257.9299,262.6352 251.0209,259.8482 245.3469,254.2712 C239.6719,248.6952 236.8349,241.7882 236.8349,233.5462 C236.8349,225.5512 239.7089,218.7052 245.4579,213.0062" id="Fill-16" fill="#757575"></path>
            <polygon id="Fill-18" fill="#757575" points="328.2475 262.6356 311.5185 224.5896 311.3705 224.5896 304.8565 261.4506 297.6775 261.4506 309.0765 203.2726 328.2475 247.2396 347.4185 203.2726 358.8165 261.4506 351.6375 261.4506 345.1235 224.5896 344.9755 224.5896"></polygon>
            <path d="M395.6772,241.0956 L385.7592,218.5206 L375.8402,241.0956 L395.6772,241.0956 Z M398.5642,247.4616 L372.9532,247.4616 L366.5882,261.4506 L359.1132,261.4506 L385.7592,203.2726 L412.4062,261.4506 L404.9302,261.4506 L398.5642,247.4616 Z" id="Fill-20" fill="#757575"></path>
            <mask id="mask-8" fill="white">
                <use xlink:href="#path-7"></use>
            </mask>
            <g id="Clip-23"></g>
            <polygon id="Fill-22" fill="#757575" mask="url(#mask-8)" points="416.846 261.451 423.804 261.451 423.804 205.64 416.846 205.64"></polygon>
            <polygon id="Fill-24" fill="#757575" mask="url(#mask-8)" points="433.5737 261.4511 433.5737 202.9761 475.4687 246.8691 475.4687 205.6401 482.4267 205.6401 482.4267 263.7461 440.5317 219.8521 440.5317 261.4511"></polygon>
            <path d="M522.6909,212.8944 L517.1399,216.2254 C515.0669,212.7224 512.0809,210.9704 508.1829,210.9704 C505.8149,210.9704 503.6689,211.7104 501.7439,213.1914 C499.8199,214.6704 498.8569,216.5714 498.8569,218.8904 C498.8569,222.2474 501.4479,224.9114 506.6299,226.8844 L510.6269,228.4384 C515.0669,230.1664 518.4839,232.3134 520.8779,234.8784 C523.2709,237.4454 524.4669,240.8994 524.4669,245.2414 C524.4669,250.2744 522.7529,254.4314 519.3239,257.7124 C515.8929,260.9954 511.6629,262.6354 506.6299,262.6354 C502.1379,262.6354 498.2899,261.1674 495.0829,258.2314 C491.8739,255.2954 489.9749,251.5584 489.3819,247.0174 L496.4149,245.5374 C496.3649,248.5474 497.3879,251.0644 499.4859,253.0864 C501.5839,255.1114 504.1609,256.1224 507.2209,256.1224 C510.1819,256.1224 512.6359,255.0484 514.5869,252.9024 C516.5349,250.7554 517.5099,248.2024 517.5099,245.2414 C517.5099,242.5284 516.6589,240.3924 514.9569,238.8384 C513.2529,237.2844 510.8969,235.8904 507.8869,234.6564 L504.0389,233.0284 C500.2379,231.3994 497.2659,229.5244 495.1199,227.4024 C492.9729,225.2814 491.8989,222.4434 491.8989,218.8904 C491.8989,214.5484 493.5279,211.0574 496.7849,208.4164 C500.0419,205.7774 503.8899,204.4564 508.3319,204.4564 C514.7459,204.4564 519.5329,207.2694 522.6909,212.8944" id="Fill-25" fill="#757575" mask="url(#mask-8)"></path>
        </g>
    </g>
</svg>