<svg id="Layer_1" data-name="Layer 1" xmlns="http://www.w3.org/2000/svg" xmlns:xlink="http://www.w3.org/1999/xlink" viewBox="0 0 171.5972 49.3532"><defs><style>.cls-1,.cls-2{fill:none;}.cls-1{clip-rule:evenodd;}.cls-3{fill:#f1a5ff;}.cls-4{clip-path:url(#clip-path);}.cls-5{clip-path:url(#clip-path-2);}.cls-6{fill:#222;}.cls-7{clip-path:url(#clip-path-3);}.cls-8{clip-path:url(#clip-path-5);}.cls-9{isolation:isolate;}.cls-10{fill:url(#New_Gradient_Swatch_1);}.cls-11{fill:url(#New_Gradient_Swatch_2);}.cls-12,.cls-25{fill-rule:evenodd;}.cls-12{fill:url(#linear-gradient);}.cls-13{clip-path:url(#clip-path-6);}.cls-14{clip-path:url(#clip-path-7);}.cls-15{fill:#974dff;}.cls-16{clip-path:url(#clip-path-8);}.cls-17{clip-path:url(#clip-path-9);}.cls-18{clip-path:url(#clip-path-10);}.cls-19{clip-path:url(#clip-path-12);}.cls-20{fill:url(#New_Gradient_Swatch_2-2);}.cls-21{clip-path:url(#clip-path-13);}.cls-22{fill:#373fff;}.cls-23{clip-path:url(#clip-path-15);}.cls-24{clip-path:url(#clip-path-17);}.cls-25,.cls-26{fill:#fff;}</style><clipPath id="clip-path"><path class="cls-1" d="M169.1241,32.3057v4.8789h-5.4014V31.7591Zm-16.8082-1.7011v6.58h5.4014V31.1513Zm-19.5885-1.9825c.1571,6.6648,4.6657,8.9315,8.7857,8.9315a8.0724,8.0724,0,0,0,8.0854-5.435l-4.4621-1.5433c-.7716,2.4155-2.08,3.1872-3.5227,3.1872-2.2483,0-3.286-1.871-3.4618-4.5914Zm-11.9142-1.2058v4.7358c0,3.3549.7716,5.2672,6.0724,5.2672a26.1037,26.1037,0,0,0,3.5562-.2684V33.2929a6.6557,6.6557,0,0,1-1.7781.2013c-1.9459,0-2.4826-.6039-2.4826-2.5162V27.96Zm-11.1048-1.1239V37.1846h5.3679V26.8358Zm-9.8635-.9982v11.89h5.3679V25.8376ZM73.5461,22.6328a19.394,19.394,0,0,0-.1045,2.038c0,7.4815,3.3549,12.9836,10.87,12.9836a6.8383,6.8383,0,0,0,6.475-3.8917h.0671v3.422h4.395V24.8292l-.9024-.0913H85.7206v4.0595h4.3279a4.9983,4.9983,0,0,1-5.0995,4.4621c-2.65,0-6.0053-1.7446-6.0053-8.6893q0-.7349.0537-1.3856Z"/></clipPath><clipPath id="clip-path-2"><rect class="cls-2" x="-1.6676" y="1.6234" width="174.2559" height="50.5743"/></clipPath><clipPath id="clip-path-3"><path class="cls-1" d="M107.9233,16.8538V12.5259h5.435v4.3279Zm42.6411,13.6V12.3581h5.4014V22.121a7.6491,7.6491,0,0,1,6.1731-3.1872c3.053,0,5.2337,1.51,5.2337,5.2v7.99l-5.4014-.5369V25.845c0-1.61-.6039-2.4491-2.08-2.4491a6.0426,6.0426,0,0,0-3.9253,1.7781V30.99Zm-19.5908-1.9472q-.002-.1219-.002-.2458c0-7.146,5.0659-9.3267,9.0248-9.3267,4.8646,0,6.7434,2.5833,7.7834,5.4685l-4.5292,1.51c-.7045-2.2814-1.7446-3.0194-3.3214-3.0194-2.1807,0-3.5562,1.8452-3.5562,5.4014q0,.3846.02.7509Zm-11.9119-1.184V23.2281h-2.9859V19.3028h2.9859v-6.14H124.43v6.14h4.5963v3.9253H124.43v4.6278Zm-11.1048-1.1038V19.3028h5.3679v7.4493Zm-9.8635-.98v-12.88h5.3679V25.7718Zm-5.0345-.5h.4383v.0436ZM71.7956,22.6244c.701-6.6023,4.855-10.7359,11.2007-10.7359,4.6969,0,8.4544,1.8788,10.0312,7.9512l-4.9988,1.3755c-1.04-3.4556-2.6168-4.7975-5.0659-4.7975-1.87,0-5.2443,1.013-5.7153,6.7487Z"/></clipPath><clipPath id="clip-path-5"><path class="cls-1" d="M28.7845,46.1389a5.8891,5.8891,0,0,1,.4961,2.8056,7.7573,7.7573,0,0,1-1.933.2187,12.8207,12.8207,0,0,1-5.3749-.1907c-3.535-.75-5.17-4.5226-5.17-4.5226s.0342-.034.1017-.0917a.8042.8042,0,0,0-.337-.0295,22.5836,22.5836,0,0,1-5.212.3946c-1.7386,0-8.62-2.6126-10.837-5.4139,0,0,3.4421-.8409,3.4421-1.5514S.0289,35.7345.0289,35.7345s-.5957-3.2774,3.6191-6.55A25.7565,25.7565,0,0,1,10.98,24.866C8.79,24.5734,2.6,22.11.5188,19.4811c0,0,3.4421-.8409,3.4421-1.5514S.0289,15.9062.0289,15.9062s-.5957-3.2774,3.6191-6.55S11.017,4.53,14.5616,4.3478s4.7329-.1817,4.7329-.1817S22.38,0,24.0011,0c.81,0,12.6833,2.5234,13.7117,4.1661A4.258,4.258,0,0,0,39.7673,6.083c.5256.3937.1945.0789,2.5762.611,5.9574,1.331,5.1447,1.8535,9.571,2.6619,1.7914.3272,10.0007-3.7071,10.7751-3.3153.3606.1824.6436,3.6522-.7659,5.9273s1.1314,4.1544-.01,7.0033,1.3068,4.9594.7755,5.9239-9.2483-3.1563-10.7751-2.8583c-1.3665.2667-5.2481,2.0912-12.8282,3.4869a7.43,7.43,0,0,1,.6811.3877c.5256.3937.1945.0789,2.5762.611,5.9574,1.331,5.1447,1.8536,9.571,2.6619,1.7914.3272,10.0007-3.7071,10.7751-3.3153.3606.1824.6436,3.6522-.7659,5.9273s1.1314,4.1544-.01,7.0033,1.3068,4.9595.7755,5.9239-9.2483-3.1563-10.7751-2.8583-6.1931,2.5406-15.65,3.9571A38.3226,38.3226,0,0,1,28.7845,46.1389Z"/></clipPath><linearGradient id="New_Gradient_Swatch_1" x1="30.6329" x2="30.6329" y2="17.9854" gradientUnits="userSpaceOnUse"><stop offset="0" stop-color="#e559ff"/><stop offset="1" stop-color="#924dff"/></linearGradient><linearGradient id="New_Gradient_Swatch_2" x1="15.2524" y1="8.905" x2="41.5639" y2="26.4678" gradientUnits="userSpaceOnUse"><stop offset="0" stop-color="#f1a5ff"/><stop offset="1" stop-color="#ff686c"/></linearGradient><linearGradient id="linear-gradient" x1="31.6917" y1="22.8767" x2="31.6917" y2="38.2459" gradientUnits="userSpaceOnUse"><stop offset="0" stop-color="#6f3cff"/><stop offset="1" stop-color="#3633ff"/></linearGradient><clipPath id="clip-path-6"><path class="cls-2" d="M24.429,9.2346c1.0766.0554,2.1533.1126,3.1579.1686.3507.02.687.0386,1.0072.0571.908.0526,1.67.1,2.2549.14a74.6749,74.6749,0,0,1,8.1845,1.18,55.2515,55.2515,0,0,1,12.3634,4.2486c.3926.1741,1.7409.7749,1.7722.7888a.6509.6509,0,0,0,.8728-.4216.7848.7848,0,0,0-.3765-.9773c-.03-.0135-1.38-.6148-1.7737-.7895A56.3559,56.3559,0,0,0,39.2694,9.299a75.7669,75.7669,0,0,0-8.3372-1.2005c-.59-.041-1.3565-.0886-2.2688-.1414-.3211-.0186-.6583-.0377-1.01-.0573-1.0065-.056-2.0848-.1134-3.163-.1688-.3773-.0194-.7277-.0372-1.0422-.053l-.2921-.0146-.1035-.0051a.75.75,0,0,0-.6257,1.1c.0092.02.0283.0619.056.1245.0472.1068.1.23.1571.3685.1638.3965.3279.829.4807,1.2816a14.9333,14.9333,0,0,1,.55,2.0612c.0442.2419.0778.4739.1.6947A11.5083,11.5083,0,0,1,23.378,16.43c-.1109.4935-.24,1.0132-.3847,1.55-.1768.6577-.3665,1.307-.5562,1.9188-.0663.214-.1279.4077-.183.5777-.0192.0592-.0362.1111-.0508.1553l-.0172.0518a.782.782,0,0,0,.3926.9693.6534.6534,0,0,0,.8657-.44l.02-.0594c.0155-.0469.0334-.1017.0535-.1637.0572-.1765.1209-.3769.1893-.5977.1955-.63.3909-1.2993.5735-1.9785.15-.558.285-1.1.4012-1.6169a12.5988,12.5988,0,0,0,.4256-3.6779q-.04-.4006-.1188-.8274A16.5319,16.5319,0,0,0,24.3783,10c-.0907-.2687-.1849-.53-.2807-.7825Z"/></clipPath><clipPath id="clip-path-7"><rect class="cls-2" x="0.0262" width="63.022" height="49.429"/></clipPath><clipPath id="clip-path-8"><path class="cls-2" d="M24.4375,17.8945q.1325-.5277.2441-1.03a12.9184,12.9184,0,0,0,.4256-3.7253q-.04-.4058-.1188-.8381a16.9182,16.9182,0,0,0-.61-2.3213c-.0907-.2721-.1849-.5371-.2807-.7926l.3313.0172c1.0766.0561,2.1533.1141,3.1579.1707.3507.02.687.0391,1.0072.0579.908.0532,1.67.1011,2.2549.1423a73.7836,73.7836,0,0,1,8.1845,1.1953,54.7719,54.7719,0,0,1,12.3634,4.3034c.3926.1763,1.7409.7849,1.7722.799a.6489.6489,0,0,0,.8728-.4271.7992.7992,0,0,0-.3765-.99c-.03-.0137-1.38-.6227-1.7737-.8A55.8663,55.8663,0,0,0,39.2694,9.27a74.8624,74.8624,0,0,0-8.3372-1.216c-.59-.0416-1.3565-.09-2.2688-.1432-.3211-.0188-.6583-.0382-1.01-.058-1.0065-.0568-2.0848-.1148-3.163-.171-.3773-.02-.7277-.0377-1.0422-.0537l-.2921-.0148-.1035-.0052a.7594.7594,0,0,0-.6257,1.1138c.0092.02.0283.0627.056.1262.0472.1082.1.2333.1571.3733.1638.4016.3279.84.4807,1.2981a15.282,15.282,0,0,1,.55,2.0878c.0442.245.0778.48.1.7037a11.8,11.8,0,0,1-.3935,3.1821c-.0994.4481-.2137.9174-.34,1.4016Z"/></clipPath><clipPath id="clip-path-9"><rect class="cls-2" x="0.0262" y="-0.0981" width="63.022" height="50.0664"/></clipPath><clipPath id="clip-path-10"><path class="cls-2" d="M18.9474,9.4822c.01.0173.0326.0547.0646.1106.0548.0956.1163.2063.1827.33.1906.3562.3815.7462.5592,1.1558a10.6559,10.6559,0,0,1,.6728,2.0318,5.1111,5.1111,0,0,1,.1172,1.0282,8.8533,8.8533,0,0,1-.532,2.8167c-.1181.3437-.2446.6628-.3708.9481-.0437.0989-.0841.1861-.12.2605-.0206.0427-.0345.0705-.0405.0822a.7089.7089,0,0,0,.2348.9192.591.591,0,0,0,.8417-.2564c.0419-.0812.11-.2235.1967-.4187.1417-.3205.283-.6768.415-1.0608a10.2456,10.2456,0,0,0,.6108-3.2908,6.5519,6.5519,0,0,0-.1478-1.3266,12.0326,12.0326,0,0,0-.7613-2.3112c-.194-.4472-.4014-.8709-.609-1.259-.1256-.2347-.2245-.4072-.2837-.5049a.5868.5868,0,0,0-.8562-.19A.7137.7137,0,0,0,18.9474,9.4822Z"/></clipPath><clipPath id="clip-path-12"><path class="cls-3" d="M21.0306,17.8945q.07-.1893.1382-.3892a10.5177,10.5177,0,0,0,.6108-3.3367,6.7323,6.7323,0,0,0-.1478-1.3452,12.3209,12.3209,0,0,0-.7613-2.3435c-.194-.4534-.4014-.8831-.609-1.2766-.1256-.2379-.2245-.4129-.2837-.5119a.5823.5823,0,0,0-.8562-.1931.73.73,0,0,0-.1743.9482c.01.0175.0326.0555.0646.1122.0548.0969.1163.2092.1827.3351.1906.3612.3815.7566.5592,1.172a10.9109,10.9109,0,0,1,.6728,2.06,5.2518,5.2518,0,0,1,.1172,1.0426,9.0882,9.0882,0,0,1-.532,2.856c-.1058.3122-.2184.6044-.3314.87Z"/></clipPath><linearGradient id="New_Gradient_Swatch_2-2" x1="25.8635" y1="35.9452" x2="36.687" y2="48.924" xlink:href="#New_Gradient_Swatch_2"/><clipPath id="clip-path-13"><path class="cls-2" d="M24.429,29.2951c1.0766.0554,2.1533.1126,3.1579.1685.3507.02.687.0386,1.0072.0571.908.0526,1.67.1,2.2549.14a74.6783,74.6783,0,0,1,8.1845,1.18A55.2521,55.2521,0,0,1,51.3968,35.09c.3926.174,1.7409.7749,1.7722.7888a.6508.6508,0,0,0,.8728-.4216.7848.7848,0,0,0-.3765-.9773c-.03-.0135-1.38-.6148-1.7737-.7895a56.355,56.355,0,0,0-12.6222-4.3309,75.7626,75.7626,0,0,0-8.3372-1.2006c-.59-.041-1.3565-.0886-2.2688-.1414-.3211-.0186-.6583-.0377-1.01-.0573-1.0065-.056-2.0848-.1133-3.163-.1688-.3773-.0194-.7277-.0372-1.0422-.053l-.2921-.0146-.1035-.0051a.75.75,0,0,0-.6257,1.1c.0092.02.0283.0619.056.1245.0472.1068.1.23.1571.3685.1638.3965.3279.829.4807,1.2815a14.9332,14.9332,0,0,1,.55,2.0612c.0442.2419.0778.4739.1.6947A11.5083,11.5083,0,0,1,23.378,36.49c-.1109.4935-.24,1.0132-.3847,1.55-.1768.6577-.3665,1.307-.5562,1.9188-.0663.2139-.1279.4077-.183.5777-.0192.0592-.0362.1111-.0508.1553l-.0172.0518a.782.782,0,0,0,.3926.9693.6534.6534,0,0,0,.8657-.44l.02-.0594c.0155-.0469.0334-.1017.0535-.1637.0572-.1765.1209-.3769.1893-.5977.1955-.63.3909-1.2993.5735-1.9785.15-.558.285-1.1.4012-1.6169a12.5988,12.5988,0,0,0,.4256-3.6779q-.04-.4006-.1188-.8274a16.5332,16.5332,0,0,0-.61-2.2917c-.0907-.2687-.1849-.53-.2807-.7824Z"/></clipPath><clipPath id="clip-path-15"><path class="cls-2" d="M24.4375,37.8441q.1325-.521.2441-1.0166a12.5988,12.5988,0,0,0,.4256-3.6779q-.04-.4006-.1188-.8274a16.5332,16.5332,0,0,0-.61-2.2917c-.0907-.2687-.1849-.53-.2807-.7824l.3313.017c1.0766.0554,2.1533.1126,3.1579.1685.3507.02.687.0386,1.0072.0571.908.0526,1.67.1,2.2549.14a74.6783,74.6783,0,0,1,8.1845,1.18A55.2521,55.2521,0,0,1,51.3968,35.06c.3926.174,1.7409.7749,1.7722.7888a.6508.6508,0,0,0,.8728-.4216.7848.7848,0,0,0-.3765-.9773c-.03-.0135-1.38-.6148-1.7737-.7895a56.355,56.355,0,0,0-12.6222-4.3309,75.7626,75.7626,0,0,0-8.3372-1.2006c-.59-.041-1.3565-.0886-2.2688-.1414-.3211-.0186-.6583-.0377-1.01-.0573-1.0065-.056-2.0848-.1133-3.163-.1688-.3773-.0194-.7277-.0372-1.0422-.053l-.2921-.0146-.1035-.0051a.75.75,0,0,0-.6257,1.1c.0092.02.0283.0619.056.1245.0472.1068.1.23.1571.3685.1638.3965.3279.829.4807,1.2815a14.9332,14.9332,0,0,1,.55,2.0612c.0442.2419.0778.4739.1.6947A11.5083,11.5083,0,0,1,23.378,36.46c-.0994.4424-.2137.9058-.34,1.3838Z"/></clipPath><clipPath id="clip-path-17"><path class="cls-3" d="M21.0306,37.8441q.07-.1867.1382-.3838A10.2456,10.2456,0,0,0,21.78,34.17a6.5521,6.5521,0,0,0-.1478-1.3266,12.0333,12.0333,0,0,0-.7613-2.3112c-.194-.4472-.4014-.8709-.609-1.259-.1256-.2347-.2245-.4072-.2837-.5049a.5868.5868,0,0,0-.8562-.19.7137.7137,0,0,0-.1743.9351c.01.0173.0326.0547.0646.1106.0548.0956.1163.2063.1827.33.1906.3562.3815.7462.5592,1.1558a10.6554,10.6554,0,0,1,.6728,2.0318,5.1111,5.1111,0,0,1,.1172,1.0283,8.8533,8.8533,0,0,1-.532,2.8167c-.1058.3079-.2184.5961-.3314.8579Z"/></clipPath></defs><title>wordmark</title><g class="cls-4"><g class="cls-5"><rect class="cls-6" x="72.1897" y="21.3809" width="98.1862" height="17.5252"/></g></g><g class="cls-7"><g class="cls-5"><rect class="cls-6" x="70.5437" y="10.6366" width="98.0808" height="22.7394"/></g></g><g class="cls-8"><g class="cls-9"><rect class="cls-10" x="-1.6594" width="64.5847" height="18.0958"/><polyline class="cls-11" points="55.597 26.555 62.983 25.542 63.15 23.17 63.15 17.914 62.575 16.064 38.488 16.064 38.489 17.914 0.026 17.914 0.026 23.17 5.22 24.882 24.895 26.555 29.182 26.555"/><polygon class="cls-12" points="24.895 23.17 47.293 23.17 47.293 25.583 63.357 25.54 63.357 35.991 29.993 35.991 29.993 37.844 0.026 37.844 0.026 25.54 9.371 24.869 24.895 24.989 24.895 23.17"/><g class="cls-13"><g class="cls-14"><rect class="cls-15" x="21.3425" y="6.951" width="33.5191" height="15.601"/></g></g><g class="cls-16"><g class="cls-17"><rect class="cls-3" x="21.6514" y="6.786" width="33.2101" height="11.8908"/></g></g><g class="cls-18"><g class="cls-14"><rect class="cls-15" x="18.0987" y="7.7233" width="4.4795" height="12.3573"/></g></g><path class="cls-3" d="M21.0306,17.8945q.07-.1893.1382-.3892a10.5177,10.5177,0,0,0,.6108-3.3367,6.7323,6.7323,0,0,0-.1478-1.3452,12.3209,12.3209,0,0,0-.7613-2.3435c-.194-.4534-.4014-.8831-.609-1.2766-.1256-.2379-.2245-.4129-.2837-.5119a.5823.5823,0,0,0-.8562-.1931.73.73,0,0,0-.1743.9482c.01.0175.0326.0555.0646.1122.0548.0969.1163.2092.1827.3351.1906.3612.3815.7566.5592,1.172a10.9109,10.9109,0,0,1,.6728,2.06,5.2518,5.2518,0,0,1,.1172,1.0426,9.0882,9.0882,0,0,1-.532,2.856c-.1058.3122-.2184.6044-.3314.87Z"/><g class="cls-19"><rect class="cls-3" x="0.0262" y="-0.1171" width="63.022" height="50.1192"/></g><polygon class="cls-20" points="63.003 49.429 -0.019 49.429 -0.019 37.844 29.947 37.844 29.945 35.959 63.003 35.959 63.003 49.429"/><g class="cls-21"><g class="cls-14"><rect class="cls-22" x="21.3425" y="26.877" width="33.5191" height="15.601"/></g></g><g class="cls-23"><g class="cls-14"><rect class="cls-3" x="21.6514" y="26.877" width="33.2101" height="11.7394"/></g></g><path class="cls-22" d="M18.9474,29.5426c.01.0173.0326.0547.0646.1106.0548.0956.1163.2063.1827.33.1906.3562.3815.7462.5592,1.1558a10.6554,10.6554,0,0,1,.6728,2.0318A5.1111,5.1111,0,0,1,20.5439,34.2a8.8533,8.8533,0,0,1-.532,2.8167c-.1181.3437-.2446.6628-.3708.9481-.0437.0989-.0841.1861-.12.2605-.0206.0428-.0345.0705-.0405.0822a.7089.7089,0,0,0,.2348.9192.591.591,0,0,0,.8417-.2564c.0419-.0812.11-.2235.1967-.4187.1417-.3205.283-.6768.415-1.0608A10.2456,10.2456,0,0,0,21.78,34.2a6.5521,6.5521,0,0,0-.1478-1.3266,12.0333,12.0333,0,0,0-.7613-2.3112c-.194-.4472-.4014-.8709-.609-1.259-.1256-.2347-.2245-.4072-.2837-.5049a.5868.5868,0,0,0-.8562-.19A.7137.7137,0,0,0,18.9474,29.5426Z"/><path class="cls-3" d="M21.0306,37.8441q.07-.1867.1382-.3838A10.2456,10.2456,0,0,0,21.78,34.17a6.5521,6.5521,0,0,0-.1478-1.3266,12.0333,12.0333,0,0,0-.7613-2.3112c-.194-.4472-.4014-.8709-.609-1.259-.1256-.2347-.2245-.4072-.2837-.5049a.5868.5868,0,0,0-.8562-.19.7137.7137,0,0,0-.1743.9351c.01.0173.0326.0547.0646.1106.0548.0956.1163.2063.1827.33.1906.3562.3815.7462.5592,1.1558a10.6554,10.6554,0,0,1,.6728,2.0318,5.1111,5.1111,0,0,1,.1172,1.0283,8.8533,8.8533,0,0,1-.532,2.8167c-.1058.3079-.2184.5961-.3314.8579Z"/><g class="cls-24"><rect class="cls-3" x="0.0262" width="63.022" height="49.429"/></g></g></g><circle cx="10.7513" cy="12.8885" r="2.7321"/><path class="cls-25" d="M8.0192,12.6707l0-.0336a2.9449,2.9449,0,1,1,2.9437,3.0313,2.7188,2.7188,0,0,1-2.9019-2.52,2.148,2.148,0,0,0,2.2273,1.8882,2.3376,2.3376,0,1,0-2.2689-2.3662Z"/><circle class="cls-26" cx="9.1967" cy="13.5144" r="0.7506"/><circle cx="10.7513" cy="32.8612" r="2.7321"/><path class="cls-25" d="M8.0192,32.6434l0-.0336a2.9449,2.9449,0,1,1,2.9437,3.0313,2.7188,2.7188,0,0,1-2.9019-2.52A2.148,2.148,0,0,0,10.2881,35.01a2.3376,2.3376,0,1,0-2.2689-2.3662Z"/><circle class="cls-26" cx="9.1967" cy="33.4871" r="0.7506"/></svg>