<?xml version="1.0" encoding="UTF-8" standalone="no"?>
<svg width="85px" height="100px" viewBox="0 0 85 100" version="1.1" xmlns="http://www.w3.org/2000/svg" xmlns:xlink="http://www.w3.org/1999/xlink">
    <!-- Generator: Sketch 3.6 (26304) - http://www.bohemiancoding.com/sketch -->
    <title>Slice 1</title>
    <desc>Created with Sketch.</desc>
    <defs></defs>
    <g id="Page-1" stroke="none" stroke-width="1" fill="none" fill-rule="evenodd">
        <g fill="#000000">
            <path d="M1.9012591,32.4467332 L1.9012591,56.9404436 C1.80259629,57.0244403 1.71859957,57.1017706 1.67726785,57.1644348 C1.53594003,57.3724267 1.34928065,57.6950808 1.15062174,58.1377302 C0.754637204,59.013696 0.349319695,60.4096415 0.38531829,62.1855721 C0.390651415,63.0708709 0.526646105,64.0388331 0.770636579,65.0387941 C1.01062721,66.0494213 1.39061237,67.0800477 1.86392723,68.1066743 C1.87459348,68.1333399 1.9012591,75.0704024 1.9012591,75.0704024 C2.33857536,77.632969 4.49982432,80.0182092 8.0050208,82.0794621 C7.78636267,82.7834346 7.66636735,83.5020732 7.66636735,84.2260449 C7.66636735,92.933705 23.6444102,99.9960959 43.3583072,99.9960959 C63.0708709,99.9960959 79.0489137,92.933705 79.0489137,84.2260449 C79.0489137,83.5234057 78.9342515,82.8354326 78.7315928,82.1581257 C82.3087865,80.0795402 84.5273665,77.6636345 84.9033518,75.0704024 L84.966016,32.4467332 C84.9606829,14.5260995 66.3667422,0 43.4303044,0 C20.4938665,0 1.9012591,14.5260995 1.9012591,32.4467332 Z M81.4661527,74.4090949 L81.4394871,74.5704219 C81.2728269,75.7210437 79.9755442,77.3663128 77.0796573,79.0755794 C75.5183849,79.9968767 73.4971305,80.9341735 70.9185645,81.8194722 C63.5241865,84.3567065 53.7579012,85.7566518 43.4249712,85.7566518 C38.9104808,85.7566518 34.5093193,85.4913289 30.3628146,84.975349 C31.1547836,84.3767057 31.7960919,83.6114023 32.2334082,82.6941047 C34.0093389,78.9702501 31.7227615,74.1797705 27.1242743,71.9865228 C26.0616492,71.4812092 24.9723583,71.1638882 23.9004002,71.0132275 C23.0977649,70.8985653 22.3057958,70.8825659 21.5511586,70.9558964 C21.2391708,70.9038984 20.9165167,70.8519004 20.5778633,70.7999025 C19.8738907,70.6585746 19.0872548,70.5239132 18.2806196,70.3465868 C17.4779843,70.1639273 16.614018,69.9759346 15.7593847,69.7372773 C14.8794191,69.5186191 14.0154528,69.2372968 13.1194878,68.9506413 C12.6821715,68.7946474 12.2395221,68.6373202 11.7968728,68.4813263 C11.3635563,68.3039999 10.9262401,68.1280068 10.4942569,67.9506804 C10.0729401,67.7520215 9.65028989,67.5600289 9.22897301,67.36137 C8.83298847,67.148045 8.40100534,66.9400532 8.01568705,66.7107288 C7.63036876,66.4760713 7.22371797,66.25208 6.86906515,66.0027564 C6.68773889,65.877428 6.50507936,65.7520995 6.32241982,65.6281044 C6.15042654,65.4974428 5.97843325,65.3614481 5.81177309,65.2321198 C5.67177856,65.1174576 5.53578387,65.0027955 5.39578933,64.8881333 L5.39578933,62.2002382 C11.816872,64.4814825 26.4256349,66.0760869 43.4303044,66.0760869 C60.4349738,66.0760869 75.0437368,64.4814825 81.4661527,62.2002382 L81.4661527,74.4090949 L81.4661527,74.4090949 Z M43.4303044,3.49453023 C53.0392625,3.49453023 61.820253,6.22375701 68.5239913,10.7129151 C61.5549301,7.12505515 52.8619361,4.98913854 43.4303044,4.98913854 C34.0040057,4.98913854 25.3110118,7.12505515 18.3379507,10.7129151 C25.0403557,6.22375701 33.8213462,3.49453023 43.4303044,3.49453023 L43.4303044,3.49453023 L43.4303044,3.49453023 Z M5.39578933,49.8047222 C37.0558866,33.8106799 68.5906554,33.8106799 68.5906554,33.8106799 C28.7855428,36.9518906 8.42100456,51.9819705 5.39578933,54.3832101 L5.39578933,49.8047222 L5.39578933,49.8047222 Z M5.39578933,74.4037618 L5.39578933,73.6224589 C5.49445215,73.7464541 5.59311496,73.8717825 5.69311106,73.997111 C6.08242919,74.4450935 6.47308061,74.8877429 6.85973218,75.3303922 C7.26504969,75.7517091 7.66636735,76.1743593 8.06768502,76.5956762 C8.73965878,77.2569837 9.41163255,77.9142914 10.082273,78.5182678 C10.2342671,78.6529292 10.3795948,78.7835908 10.5302555,78.9142523 C11.082234,79.4128995 11.6302126,79.8715483 12.1661917,80.3141977 C11.2235618,79.8822145 10.3955941,79.4395651 9.6716224,79.007582 C6.84906593,77.3196479 5.58378199,75.6997112 5.42112168,74.5650888 L5.39578933,74.4037618 L5.39578933,74.4037618 Z" id="Fill-1"></path>
            <path d="M38.2491733,72.8878209 L38.1758429,73.0078163 L38.1758429,79.6368908 L38.2491733,79.7568861 C38.3785016,79.9662112 38.5144963,80.1635369 38.6544908,80.3461964 L39.5451227,81.491485 L39.5451227,71.1425557 L38.6491577,72.2945108 C38.5144963,72.4811701 38.3785016,72.6798291 38.2491733,72.8878209 L38.2491733,72.8878209 Z" id="Fill-2"></path>
            <path d="M40.2850938,70.8039023 L40.0557695,70.9505632 L40.0557695,81.6901439 L40.2850938,81.8354716 C40.4197552,81.9234682 40.5557499,82.0074649 40.6917446,82.0847952 L41.4303825,82.491446 L41.4303825,70.1479279 L40.6917446,70.5545787 C40.5557499,70.6332423 40.4197552,70.7159057 40.2850938,70.8039023 L40.2850938,70.8039023 Z" id="Fill-3"></path>
            <path d="M42.3263475,69.939936 L41.9410292,70.0279326 L41.9410292,82.6167744 L42.3263475,82.704771 C42.4623422,82.7367697 42.5970036,82.7621021 42.7329983,82.7887677 L43.3156422,82.8874305 L43.3156422,69.7572765 L42.7329983,69.8572726 C42.5970036,69.8772718 42.4623422,69.9092706 42.3263475,69.939936 L42.3263475,69.939936 Z" id="Fill-4"></path>
            <path d="M44.362268,69.7839421 L43.8209558,69.7426104 L43.8209558,82.908763 L44.362268,82.866098 C44.5035958,82.8567651 44.6382572,82.8407657 44.7742519,82.8194332 L45.2009019,82.756769 L45.2009019,69.9039374 L44.7742519,69.8412732 C44.6382572,69.8092745 44.5035958,69.7946084 44.362268,69.7839421 L44.362268,69.7839421 Z" id="Fill-5"></path>
            <path d="M46.4048549,70.2785895 L45.7115486,69.9812678 L45.7115486,82.6581061 L46.4048549,82.3607844 C46.5448494,82.3034533 46.6808441,82.2314561 46.8155055,82.1634588 L47.0861616,82.0234643 L47.0861616,70.6065767 L46.8155055,70.4665821 C46.6808441,70.409251 46.5448494,70.3412537 46.4048549,70.2785895 L46.4048549,70.2785895 Z" id="Fill-6"></path>
            <path d="M48.8527593,72.0905187 C48.7220978,71.9345248 48.5861031,71.7891972 48.4461085,71.6478693 L47.5968084,70.8092354 L47.5968084,81.8354716 L48.4461085,80.9915046 C48.5861031,80.85151 48.7220978,80.7048491 48.8527593,80.5488552 L48.9674215,80.4088606 L48.9674215,72.2265134 L48.8527593,72.0905187 Z" id="Fill-7"></path>
        </g>
    </g>
</svg>