<?xml version="1.0" encoding="UTF-8"?>
<svg width="438px" height="144px" viewBox="0 0 438 144" version="1.1" xmlns="http://www.w3.org/2000/svg" xmlns:xlink="http://www.w3.org/1999/xlink">
    <!-- Generator: Sketch 39.1 (31720) - http://www.bohemiancoding.com/sketch -->
    <title>Group</title>
    <desc>Created with Sketch.</desc>
    <defs></defs>
    <g id="Page-1" stroke="none" stroke-width="1" fill="none" fill-rule="evenodd">
        <g id="Group">
            <path d="M180.216862,67.6477788 L178.034297,60.4823774 L167.059703,60.4823774 L164.877138,67.6477788 L158,67.6477788 L168.624561,37.4213156 L176.428259,37.4213156 L187.094,67.6477788 L180.216862,67.6477788 Z M176.51062,55.1289166 C174.492767,48.6360971 173.356884,44.9642088 173.102936,44.1131415 C172.848989,43.2620743 172.66711,42.5894667 172.557295,42.0952986 C172.104308,43.8523407 170.807136,48.1968366 168.665741,55.1289166 L176.51062,55.1289166 Z M211.953825,67.6477788 L205.673804,67.6477788 L205.673804,54.2023561 C205.673804,52.5414023 205.37868,51.2957056 204.788424,50.4652287 C204.198167,49.6347518 203.257889,49.2195195 201.967562,49.2195195 C200.21052,49.2195195 198.940801,49.8063353 198.158368,50.9799845 C197.375936,52.1536337 196.984725,54.0993913 196.984725,56.8173158 L196.984725,67.6477788 L190.704704,67.6477788 L190.704704,44.6278974 L195.502228,44.6278974 L196.346428,47.5723008 L196.696462,47.5723008 C197.396533,46.4604226 198.360833,45.6196632 199.58939,45.0499972 C200.817946,44.4803312 202.214637,44.1955025 203.779502,44.1955025 C206.456246,44.1955025 208.487795,44.9195851 209.874211,46.3677721 C211.260627,47.8159592 211.953825,49.905847 211.953825,52.6374983 L211.953825,67.6477788 Z M224.212427,67.6477788 L215.440987,44.6278974 L222.009272,44.6278974 L226.456762,57.7438763 C226.95093,59.4048301 227.259781,60.9765356 227.383323,62.4590398 L227.506864,62.4590398 C227.575498,61.1412583 227.884349,59.5695528 228.433424,57.7438763 L232.860325,44.6278974 L239.428609,44.6278974 L230.65717,67.6477788 L224.212427,67.6477788 Z M242.77164,38.6773198 C242.77164,36.6320131 243.910954,35.609375 246.189618,35.609375 C248.468282,35.609375 249.607597,36.6320131 249.607597,38.6773198 C249.607597,39.6519291 249.322769,40.4103285 248.753103,40.9525407 C248.183437,41.4947529 247.32895,41.7658549 246.189618,41.7658549 C243.910954,41.7658549 242.77164,40.7363535 242.77164,38.6773198 L242.77164,38.6773198 Z M249.319334,67.6477788 L243.039313,67.6477788 L243.039313,44.6278974 L249.319334,44.6278974 L249.319334,67.6477788 Z M262.504496,67.6477788 L256.224475,67.6477788 L256.224475,35.609375 L262.504496,35.609375 L262.504496,67.6477788 Z M305.841173,67.6477788 L299.478791,67.6477788 L299.478791,54.6553412 L287.557045,54.6553412 L287.557045,67.6477788 L281.174073,67.6477788 L281.174073,37.544857 L287.557045,37.544857 L287.557045,49.3430609 L299.478791,49.3430609 L299.478791,37.544857 L305.841173,37.544857 L305.841173,67.6477788 Z M327.880135,67.6477788 L326.665312,64.5180632 L326.50059,64.5180632 C325.443619,65.8495717 324.355779,66.7726912 323.237038,67.2874497 C322.118296,67.8022081 320.659836,68.0595834 318.861613,68.0595834 C316.651584,68.0595834 314.911726,67.4281559 313.641989,66.1652819 C312.372251,64.9024079 311.737392,63.1042122 311.737392,60.7706407 C311.737392,58.327254 312.591878,56.5256266 314.300876,55.3657043 C316.009874,54.205782 318.587059,53.5640595 322.032509,53.4405175 L326.027014,53.316976 L326.027014,52.3080546 C326.027014,49.9744831 324.832793,48.8077149 322.444314,48.8077149 C320.60491,48.8077149 318.442957,49.3636456 315.95839,50.4755238 L313.878776,46.2339356 C316.528066,44.8475196 319.465577,44.154322 322.691397,44.154322 C325.779947,44.154322 328.1478,44.8269296 329.795027,46.1721649 C331.442254,47.5174003 332.265855,49.5626764 332.265855,52.3080546 L332.265855,67.6477788 L327.880135,67.6477788 Z M326.027014,56.9820377 L323.597367,57.0643986 C321.77169,57.1193062 320.412748,57.4487466 319.520501,58.0527298 C318.628253,58.656713 318.182135,59.5764009 318.182135,60.8118211 C318.182135,62.5825901 319.19791,63.4679613 321.22949,63.4679613 C322.68454,63.4679613 323.847877,63.0492974 324.719535,62.211957 C325.591192,61.3746167 326.027014,60.2627552 326.027014,58.8763392 L326.027014,56.9820377 Z M348.395421,68.0595834 C341.229984,68.0595834 337.647319,64.1268881 337.647319,56.2613795 C337.647319,52.3492155 338.621913,49.3602298 340.571132,47.2943327 C342.52035,45.2284355 345.313731,44.1955025 348.951357,44.1955025 C351.614374,44.1955025 354.002817,44.7171165 356.116758,45.7603603 L354.263637,50.6196554 C353.275301,50.2215756 352.355613,49.8955668 351.504546,49.6416193 C350.653479,49.3876718 349.802424,49.2607 348.951357,49.2607 C345.684357,49.2607 344.050881,51.5805098 344.050881,56.220199 C344.050881,60.7226193 345.684357,62.9737957 348.951357,62.9737957 C350.159323,62.9737957 351.278048,62.8125071 352.307565,62.4899252 C353.337082,62.1673433 354.366583,61.6628876 355.3961,60.976543 L355.3961,66.350594 C354.38031,66.9957579 353.354241,67.4418752 352.31786,67.6889592 C351.28148,67.9360433 349.974013,68.0595834 348.395421,68.0595834 L348.395421,68.0595834 Z M367.078175,55.1289166 L369.816676,51.6285769 L376.26142,44.6278974 L383.34446,44.6278974 L374.202396,54.6141608 L383.900396,67.6477788 L376.652634,67.6477788 L370.022579,58.3204029 L367.325258,60.4823774 L367.325258,67.6477788 L361.045237,67.6477788 L361.045237,35.609375 L367.325258,35.609375 L367.325258,49.8989972 L366.995814,55.1289166 L367.078175,55.1289166 Z M399.275536,67.6477788 L399.275536,37.544857 L405.658508,37.544857 L405.658508,67.6477788 L399.275536,67.6477788 Z M413.55198,67.6477788 L413.55198,37.544857 L419.934953,37.544857 L419.934953,67.6477788 L413.55198,67.6477788 Z M427.828425,67.6477788 L427.828425,37.544857 L434.211397,37.544857 L434.211397,67.6477788 L427.828425,67.6477788 Z" id="Anvil-Hack-III" fill="#FFFFFF"></path>
            <g id="logo-main">
                <g id="Layer_5" transform="translate(3.000000, 3.000000)" fill="#000000">
                    <g id="Layer_6">
                        <polygon id="Shape" points="0.9 33.4 0.9 103 60.3 137.4 118.8 103 118.8 35 60.3 0.8"></polygon>
                    </g>
                </g>
                <g id="svg3686" transform="translate(3.000000, 10.000000)">
                    <rect id="rect4518_32_" fill="#BD901E" x="13.5" y="19.6" width="2.8" height="18.7"></rect>
                    <circle id="Oval" stroke="#BD901E" stroke-width="2" fill="#000000" cx="14.9" cy="36.3" r="2.6"></circle>
                    <rect id="rect4518_1_" fill="#BD901E" transform="translate(69.667170, 12.842370) rotate(-60.099484) translate(-69.667170, -12.842370) " x="68.2671575" y="-9.75783182" width="2.8" height="45.2"></rect>
                    <circle id="Oval" stroke="#BD901E" stroke-width="2" fill="#000000" cx="89.1" cy="24.5" r="2.6"></circle>
                    <rect id="rect4518_2_" fill="#BD901E" transform="translate(55.978500, 15.048200) rotate(-60.099484) translate(-55.978500, -15.048200) " x="54.5784875" y="-5.25198128" width="2.8" height="40.6"></rect>
                    <circle id="Oval" stroke="#BD901E" stroke-width="2" fill="#000000" cx="71.9" cy="24.5" r="2.6"></circle>
                    <rect id="rect4518_3_" fill="#BD901E" transform="translate(45.996825, 19.293425) rotate(-60.099484) translate(-45.996825, -19.293425) " x="44.5968125" y="2.04327096" width="2.8" height="34.5"></rect>
                    <rect id="rect4518_4_" fill="#BD901E" x="58.9" y="26.7" width="2.8" height="8.6"></rect>
                    <rect id="rect4518_5_" fill="#BD901E" x="43.3" y="32.5" width="18.4" height="2.8"></rect>
                    <circle id="Oval" stroke="#BD901E" stroke-width="2" fill="#000000" cx="41.6" cy="33.7" r="2.6"></circle>
                    <rect id="rect4518_7_" fill="#BD901E" x="21.9" y="14.9" width="2.8" height="23.3"></rect>
                    <circle id="Oval" stroke="#BD901E" stroke-width="2" fill="#000000" cx="23.3" cy="36.2" r="2.6"></circle>
                    <polygon id="rect4518_11_" fill="#BD901E" points="26.7 15.8 28.1 13.4 33.2 16.3 33.2 19.6"></polygon>
                    <rect id="rect4518_10_" fill="#BD901E" x="30.4" y="17.3" width="2.8" height="16.4"></rect>
                    <circle id="Oval" stroke="#BD901E" stroke-width="2" fill="#000000" cx="31.8" cy="36.2" r="2.6"></circle>
                    <rect id="rect4518_12_" fill="#BD901E" x="83.5" y="32.2" width="35.3" height="2.8"></rect>
                    <circle id="Oval" stroke="#BD901E" stroke-width="2" fill="#000000" cx="81.6" cy="33.6" r="2.6"></circle>
                    <rect id="rect4518_13_" fill="#BD901E" x="98.3" y="55.3" width="19.5" height="2.8"></rect>
                    <circle id="Oval" stroke="#BD901E" stroke-width="2" fill="#000000" cx="97.4" cy="56.7" r="2.6"></circle>
                    <rect id="rect4518_15_" fill="#BD901E" x="88.1" y="64.4" width="33.7" height="2.8"></rect>
                    <circle id="Oval" stroke="#BD901E" stroke-width="2" fill="#000000" cx="86.5" cy="65.8" r="2.6"></circle>
                    <rect id="rect4518_14_" fill="#BD901E" x="98.3" y="72.9" width="19.5" height="2.8"></rect>
                    <circle id="Oval" stroke="#BD901E" stroke-width="2" fill="#000000" cx="97.4" cy="74.3" r="2.6"></circle>
                    <rect id="rect4518_18_" fill="#BD901E" x="100.3" y="90.2" width="17.1" height="2.8"></rect>
                    <rect id="rect4518_8_" fill="#BD901E" x="86.9" y="98.2" width="24.6" height="2.8"></rect>
                    <circle id="Oval" stroke="#BD901E" stroke-width="2" fill="#000000" cx="86.3" cy="99.6" r="2.6"></circle>
                    <rect id="rect4518_16_" fill="#BD901E" x="74.4" y="101" width="2.8" height="21.7"></rect>
                    <circle id="Oval" stroke="#BD901E" stroke-width="2" fill="#000000" cx="75.9" cy="99.6" r="2.6"></circle>
                    <rect id="rect4518_20_" fill="#BD901E" x="40.1" y="116.5" width="25.2" height="2.8"></rect>
                    <rect id="rect4518_19_" fill="#BD901E" x="64.4" y="89.4" width="2.7" height="30"></rect>
                    <circle id="Oval" stroke="#BD901E" stroke-width="2.00007513" fill="#000000" transform="translate(65.709370, 92.418340) rotate(-38.402112) translate(-65.709370, -92.418340) " cx="65.7092723" cy="92.4182423" r="2.6"></circle>
                    <rect id="rect4518_55_" fill="#BD901E" x="24.8" y="107.2" width="16.9" height="2.8"></rect>
                    <rect id="rect4518_54_" fill="#BD901E" x="18" y="97" width="2.8" height="9.9"></rect>
                    <rect id="rect4518_21_" fill="#BD901E" x="18" y="97" width="20.9" height="2.8"></rect>
                    <circle id="Oval" stroke="#BD901E" stroke-width="2.00007513" fill="#000000" transform="translate(41.631220, 98.493930) rotate(-38.402112) translate(-41.631220, -98.493930) " cx="41.6311223" cy="98.4938323" r="2.6"></circle>
                    <rect id="rect4518_56_" fill="#BD901E" x="0.9" y="87" width="31" height="2.8"></rect>
                    <circle id="Oval" stroke="#BD901E" stroke-width="1.99999189" fill="#000000" transform="translate(31.693820, 88.389790) rotate(-29.887726) translate(-31.693820, -88.389790) " cx="31.6938305" cy="88.3898005" r="2.6"></circle>
                    <rect id="rect4518_58_" fill="#BD901E" x="0.9" y="77.7" width="19.5" height="2.8"></rect>
                    <circle id="Oval" stroke="#BD901E" stroke-width="1.99999189" fill="#000000" transform="translate(22.808630, 79.116760) rotate(-29.887726) translate(-22.808630, -79.116760) " cx="22.8086405" cy="79.1167705" r="2.6"></circle>
                    <rect id="rect4518_59_" fill="#BD901E" x="40.6" y="107.2" width="11.3" height="2.8"></rect>
                    <circle id="Oval" stroke="#BD901E" stroke-width="1.99999189" fill="#000000" transform="translate(50.901480, 108.591330) rotate(-29.887726) translate(-50.901480, -108.591330) " cx="50.9014905" cy="108.591341" r="2.6"></circle>
                    <rect id="rect4518_60_" fill="#BD901E" x="2.5" y="68.4" width="28.4" height="2.8"></rect>
                    <circle id="Oval" stroke="#BD901E" stroke-width="1.99999189" fill="#000000" transform="translate(31.705340, 69.786790) rotate(-29.887726) translate(-31.705340, -69.786790) " cx="31.7053505" cy="69.7868005" r="2.6"></circle>
                    <rect id="rect4518_61_" fill="#BD901E" x="0.9" y="59" width="9.7" height="2.8"></rect>
                    <circle id="Oval" stroke="#BD901E" stroke-width="1.99999189" fill="#000000" transform="translate(13.096220, 60.409770) rotate(-29.887726) translate(-13.096220, -60.409770) " cx="13.0962305" cy="60.4097805" r="2.6"></circle>
                    <rect id="rect4518_6_" fill="#BD901E" x="98.9" y="85.4" width="2.8" height="7.7"></rect>
                    <circle id="Oval" stroke="#BD901E" stroke-width="1.99999189" fill="#000000" transform="translate(100.326120, 83.416910) rotate(-29.887726) translate(-100.326120, -83.416910) " cx="100.326131" cy="83.4169205" r="2.6"></circle>
                </g>
                <g id="Layer_3" fill="#BD901E">
                    <path d="M125.4,108.2 L125.7,36.3 L63.5,0 L1.1,35.5 L0.8,107.4 L63,143.7 L125.4,108.2 L125.4,108.2 Z M119.2,104.6 L63,136.6 L7,103.9 L7.3,39.2 L63.5,7.2 L119.4,39.9 L119.2,104.6 L119.2,104.6 Z" id="path4497_1_"></path>
                </g>
                <g id="Layer_2" transform="translate(13.000000, 50.000000)" fill="#BD901E">
                    <path d="M38.9,0.3 L38.8,3.3 L0.5,3.3 L2.5,6.1 C4.5,8.9 8.1,13.1 16.8,17.3 C26.1,21.8 43.2,22.8 43.2,22.8 C43.2,22.8 43.3,30.3 43.2,30.3 C43.1,30.3 42.4,30.4 39.2,32.1 C33.8,35 29.4,39.4 29.4,39.4 L29.4,47 C29.4,47 44.6,47.1 47,47 C48.4,44.6 51.8,42.9 55.7,42.9 C59.4,42.9 62.7,44.4 64.2,46.7 L64.5,47 L82.2,47 L82.1,40.1 C82.1,40.1 81,38.5 78.4,36.6 C75.8,34.7 67.8,30.2 67.8,30.2 L67.8,22.7 L83.5,9 L99.9,9 L99.9,0.4 L38.9,0.3" id="path14_1_"></path>
                </g>
                <g id="Layer_9" transform="translate(59.000000, 67.000000)" fill="#000000">
                    <rect id="Rectangle-path" x="0.5" y="0.7" width="4.3" height="19"></rect>
                    <rect id="Rectangle-path" x="7.7" y="0.7" width="4.3" height="19"></rect>
                    <rect id="Rectangle-path" x="14.7" y="0.7" width="4.3" height="19"></rect>
                </g>
            </g>
            <path d="M164.357422,108 L162.697266,108 L162.697266,95.1972656 L158.175781,95.1972656 L158.175781,93.7226562 L168.878906,93.7226562 L168.878906,95.1972656 L164.357422,95.1972656 L164.357422,108 Z M171.460547,97.296875 L171.460547,104.240234 C171.460547,105.112635 171.659113,105.76367 172.05625,106.193359 C172.453387,106.623049 173.075126,106.837891 173.921484,106.837891 C175.041282,106.837891 175.859958,106.531904 176.377539,105.919922 C176.89512,105.30794 177.153906,104.308601 177.153906,102.921875 L177.153906,97.296875 L178.775,97.296875 L178.775,108 L177.437109,108 L177.202734,106.564453 L177.114844,106.564453 C176.782811,107.0918 176.322203,107.495441 175.733008,107.775391 C175.143812,108.05534 174.471618,108.195312 173.716406,108.195312 C172.414316,108.195312 171.439391,107.886071 170.791602,107.267578 C170.143812,106.649085 169.819922,105.659512 169.819922,104.298828 L169.819922,97.296875 L171.460547,97.296875 Z M187.245312,97.1015625 C187.720575,97.1015625 188.147003,97.1406246 188.524609,97.21875 L188.3,98.7226562 C187.857289,98.6249995 187.466668,98.5761719 187.128125,98.5761719 C186.262235,98.5761719 185.521683,98.9277309 184.906445,99.6308594 C184.291208,100.333988 183.983594,101.20963 183.983594,102.257812 L183.983594,108 L182.3625,108 L182.3625,97.296875 L183.700391,97.296875 L183.885937,99.2792969 L183.964062,99.2792969 C184.3612,98.5826788 184.839711,98.0455748 185.399609,97.6679688 C185.959508,97.2903627 186.574736,97.1015625 187.245312,97.1015625 L187.245312,97.1015625 Z M198.000781,108 L198.000781,101.076172 C198.000781,100.203772 197.802216,99.5527365 197.405078,99.1230469 C197.007941,98.6933572 196.386202,98.4785156 195.539844,98.4785156 C194.420046,98.4785156 193.599742,98.781247 193.078906,99.3867188 C192.55807,99.9921905 192.297656,100.991529 192.297656,102.384766 L192.297656,108 L190.676562,108 L190.676562,97.296875 L191.994922,97.296875 L192.258594,98.7617188 L192.336719,98.7617188 C192.668752,98.2343724 193.134242,97.8258478 193.733203,97.5361328 C194.332164,97.2464178 194.999475,97.1015625 195.735156,97.1015625 C197.024225,97.1015625 197.994268,97.4124318 198.645312,98.0341797 C199.296357,98.6559276 199.621875,99.6503838 199.621875,101.017578 L199.621875,108 L198.000781,108 Z M207.623437,108.195312 C206.041398,108.195312 204.793038,107.713546 203.87832,106.75 C202.963602,105.786454 202.50625,104.448576 202.50625,102.736328 C202.50625,101.011059 202.93105,99.6406301 203.780664,98.625 C204.630278,97.6093699 205.771217,97.1015625 207.203516,97.1015625 C208.544668,97.1015625 209.605855,97.5426388 210.387109,98.4248047 C211.168363,99.3069706 211.558984,100.470696 211.558984,101.916016 L211.558984,102.941406 L204.185937,102.941406 C204.21849,104.197923 204.535869,105.151689 205.138086,105.802734 C205.740302,106.453779 206.588276,106.779297 207.682031,106.779297 C208.834381,106.779297 209.973692,106.538414 211.1,106.056641 L211.1,107.501953 C210.52708,107.74935 209.985094,107.926757 209.474023,108.03418 C208.962953,108.141602 208.346097,108.195312 207.623437,108.195312 L207.623437,108.195312 Z M207.183984,98.4589844 C206.324605,98.4589844 205.639391,98.7389295 205.12832,99.2988281 C204.61725,99.8587268 204.316146,100.633459 204.225,101.623047 L209.820703,101.623047 C209.820703,100.600906 209.592841,99.8180366 209.137109,99.2744141 C208.681378,98.7307916 208.030343,98.4589844 207.183984,98.4589844 L207.183984,98.4589844 Z M221.757812,106.564453 L221.669922,106.564453 C220.92122,107.651698 219.80144,108.195312 218.310547,108.195312 C216.9108,108.195312 215.821944,107.716802 215.043945,106.759766 C214.265947,105.80273 213.876953,104.442066 213.876953,102.677734 C213.876953,100.913403 214.267574,99.5429736 215.048828,98.5664062 C215.830082,97.5898389 216.917311,97.1015625 218.310547,97.1015625 C219.762377,97.1015625 220.875647,97.628901 221.650391,98.6835938 L221.777344,98.6835938 L221.708984,97.9121094 L221.669922,97.1601562 L221.669922,92.8046875 L223.291016,92.8046875 L223.291016,108 L221.972656,108 L221.757812,106.564453 Z M218.515625,106.837891 C219.622401,106.837891 220.424802,106.536787 220.922852,105.93457 C221.420901,105.332354 221.669922,104.360684 221.669922,103.019531 L221.669922,102.677734 C221.669922,101.1608 221.417646,100.078454 220.913086,99.4306641 C220.408526,98.7828744 219.60287,98.4589844 218.496094,98.4589844 C217.545568,98.4589844 216.818036,98.8284468 216.313477,99.5673828 C215.808917,100.306319 215.556641,101.349603 215.556641,102.697266 C215.556641,104.06446 215.807289,105.096351 216.308594,105.792969 C216.809898,106.489587 217.545568,106.837891 218.515625,106.837891 L218.515625,106.837891 Z M233.747266,97.296875 L233.747266,104.240234 C233.747266,105.112635 233.945831,105.76367 234.342969,106.193359 C234.740106,106.623049 235.361845,106.837891 236.208203,106.837891 C237.328,106.837891 238.146677,106.531904 238.664258,105.919922 C239.181838,105.30794 239.440625,104.308601 239.440625,102.921875 L239.440625,97.296875 L241.061719,97.296875 L241.061719,108 L239.723828,108 L239.489453,106.564453 L239.401562,106.564453 C239.06953,107.0918 238.608922,107.495441 238.019726,107.775391 C237.430531,108.05534 236.758337,108.195312 236.003125,108.195312 C234.701035,108.195312 233.72611,107.886071 233.07832,107.267578 C232.430531,106.649085 232.106641,105.659512 232.106641,104.298828 L232.106641,97.296875 L233.747266,97.296875 Z M249.629687,108.195312 C248.933069,108.195312 248.296682,108.066733 247.720508,107.80957 C247.144333,107.552408 246.660939,107.156904 246.270312,106.623047 L246.153125,106.623047 C246.23125,107.24805 246.270312,107.840492 246.270312,108.400391 L246.270312,112.804688 L244.649219,112.804688 L244.649219,97.296875 L245.967578,97.296875 L246.192187,98.7617188 L246.270312,98.7617188 C246.686981,98.1757783 247.172002,97.7526055 247.725391,97.4921875 C248.278779,97.2317695 248.913538,97.1015625 249.629687,97.1015625 C251.048965,97.1015625 252.144332,97.5865837 252.91582,98.5566406 C253.687308,99.5266976 254.073047,100.887361 254.073047,102.638672 C254.073047,104.396493 253.680798,105.762039 252.896289,106.735352 C252.11178,107.708664 251.022924,108.195312 249.629687,108.195312 L249.629687,108.195312 Z M249.395312,98.4785156 C248.301557,98.4785156 247.510549,98.781247 247.022266,99.3867188 C246.533982,99.9921905 246.283333,100.955723 246.270312,102.277344 L246.270312,102.638672 C246.270312,104.142586 246.520961,105.218421 247.022266,105.866211 C247.52357,106.514001 248.327599,106.837891 249.434375,106.837891 C250.358859,106.837891 251.083135,106.463545 251.607226,105.714844 C252.131318,104.966142 252.393359,103.934251 252.393359,102.619141 C252.393359,101.284499 252.131318,100.260746 251.607226,99.5478516 C251.083135,98.8349574 250.345838,98.4785156 249.395312,98.4785156 L249.395312,98.4785156 Z M265.857422,106.857422 C266.143882,106.857422 266.420571,106.836263 266.6875,106.793945 C266.954428,106.751627 267.166015,106.707683 267.322266,106.662109 L267.322266,107.902344 C267.146483,107.98698 266.887697,108.056966 266.545898,108.112305 C266.2041,108.167644 265.896486,108.195312 265.623047,108.195312 C263.552724,108.195312 262.517578,107.104829 262.517578,104.923828 L262.517578,98.5566406 L260.984375,98.5566406 L260.984375,97.7753906 L262.517578,97.1015625 L263.201172,94.8164062 L264.138672,94.8164062 L264.138672,97.296875 L267.244141,97.296875 L267.244141,98.5566406 L264.138672,98.5566406 L264.138672,104.855469 C264.138672,105.500003 264.291665,105.99479 264.597656,106.339844 C264.903647,106.684898 265.323565,106.857422 265.857422,106.857422 L265.857422,106.857422 Z M278.849219,102.638672 C278.849219,104.383472 278.40977,105.745763 277.530859,106.725586 C276.651949,107.705409 275.437768,108.195312 273.888281,108.195312 C272.931245,108.195312 272.081644,107.970705 271.339453,107.521484 C270.597262,107.072263 270.024351,106.427739 269.620703,105.587891 C269.217055,104.748043 269.015234,103.76498 269.015234,102.638672 C269.015234,100.893871 269.451428,99.5348356 270.323828,98.5615234 C271.196228,97.5882113 272.407154,97.1015625 273.956641,97.1015625 C275.454044,97.1015625 276.643811,97.5996044 277.525976,98.5957031 C278.408142,99.5918019 278.849219,100.939445 278.849219,102.638672 L278.849219,102.638672 Z M270.694922,102.638672 C270.694922,104.005866 270.968357,105.047522 271.515234,105.763672 C272.062112,106.479821 272.86614,106.837891 273.927344,106.837891 C274.988547,106.837891 275.794203,106.481449 276.344336,105.768555 C276.894469,105.05566 277.169531,104.012377 277.169531,102.638672 C277.169531,101.277988 276.894469,100.24447 276.344336,99.5380859 C275.794203,98.8317022 274.982037,98.4785156 273.907812,98.4785156 C272.846609,98.4785156 272.045836,98.8268194 271.505469,99.5234375 C270.965101,100.220056 270.694922,101.258457 270.694922,102.638672 L270.694922,102.638672 Z M292.45,108 L290.867969,108 L290.867969,97.8242188 C290.867969,96.9778604 290.89401,96.1770871 290.946094,95.421875 C290.809374,95.5585944 290.656381,95.7018222 290.487109,95.8515625 C290.317838,96.0013028 289.543106,96.6360621 288.162891,97.7558594 L287.303516,96.6425781 L291.082812,93.7226562 L292.45,93.7226562 L292.45,108 Z M304.035547,108 L302.453515,108 L302.453515,97.8242188 C302.453515,96.9778604 302.479557,96.1770871 302.53164,95.421875 C302.394921,95.5585944 302.241928,95.7018222 302.072656,95.8515625 C301.903384,96.0013028 301.128653,96.6360621 299.748437,97.7558594 L298.889062,96.6425781 L302.668359,93.7226562 L304.035547,93.7226562 L304.035547,108 Z M320.683203,97.1210938 C322.08946,97.1210938 323.181571,97.6012322 323.95957,98.5615234 C324.737569,99.5218147 325.126562,100.880851 325.126562,102.638672 C325.126562,104.396493 324.734314,105.762039 323.949805,106.735352 C323.165295,107.708664 322.076439,108.195312 320.683203,108.195312 C319.986585,108.195312 319.350198,108.066733 318.774023,107.80957 C318.197849,107.552408 317.714455,107.156904 317.323828,106.623047 L317.20664,106.623047 L316.864844,108 L315.702734,108 L315.702734,92.8046875 L317.323828,92.8046875 L317.323828,96.4960938 C317.323828,97.3229208 317.297787,98.0651009 317.245703,98.7226562 L317.323828,98.7226562 C318.07904,97.6549426 319.198821,97.1210938 320.683203,97.1210938 L320.683203,97.1210938 Z M320.448828,98.4785156 C319.342052,98.4785156 318.544534,98.7958953 318.05625,99.4306641 C317.567966,100.065433 317.323828,101.134758 317.323828,102.638672 C317.323828,104.142586 317.574477,105.218421 318.075781,105.866211 C318.577086,106.514001 319.381114,106.837891 320.48789,106.837891 C321.483989,106.837891 322.226169,106.474939 322.714453,105.749023 C323.202737,105.023108 323.446875,103.979825 323.446875,102.619141 C323.446875,101.225904 323.202737,100.187503 322.714453,99.5039062 C322.226169,98.8203091 321.470969,98.4785156 320.448828,98.4785156 L320.448828,98.4785156 Z M326.008984,97.296875 L327.747265,97.296875 L330.091015,103.400391 C330.605341,104.793627 330.924348,105.799476 331.048047,106.417969 L331.126172,106.417969 C331.210808,106.085936 331.388215,105.517908 331.658398,104.713867 C331.928582,103.909827 332.812362,101.437521 334.309765,97.296875 L336.048047,97.296875 L331.448437,109.484375 C330.992706,110.688808 330.460485,111.543292 329.851758,112.047852 C329.243031,112.552411 328.495968,112.804688 327.610547,112.804688 C327.115753,112.804688 326.627476,112.74935 326.145703,112.638672 L326.145703,111.339844 C326.503778,111.417969 326.904164,111.457031 327.346875,111.457031 C328.460162,111.457031 329.254425,110.832037 329.729687,109.582031 L330.32539,108.058594 L326.008984,97.296875 Z" id="Turned-up-to-11-by" fill="#FFFFFF"></path>
            <g id="Spotify_Logo_RGB_White" transform="translate(348.000000, 88.000000)" fill="#FFFFFF">
                <path d="M21.4988909,11.9695179 C17.1528086,9.39310714 9.98404293,9.15621429 5.83518784,10.4131607 C5.16896243,10.6148571 4.4644186,10.2394286 4.26252236,9.57439286 C4.06062612,8.90903571 4.43640429,8.20623214 5.1031127,8.00405357 C9.86570662,6.561 17.7828086,6.83967857 22.7861002,9.804375 C23.3855098,10.1595536 23.582093,10.9321071 23.2267621,11.5293214 C22.8712701,12.1275 22.0966905,12.3246964 21.4988909,11.9695179 L21.4988909,11.9695179 Z M21.3565653,15.7855179 C21.0517889,16.2793929 20.4048837,16.4341607 19.9107692,16.1310536 C16.287424,13.9077321 10.7623256,13.26375 6.47565295,14.5626429 C5.91971377,14.7302679 5.33254025,14.4173571 5.16381038,13.8635357 C4.99620751,13.3085893 5.309839,12.7235893 5.86465116,12.5548393 C10.7616816,11.0716071 16.8491592,11.79 21.0107335,14.3429464 C21.5048479,14.6466964 21.6603757,15.2927679 21.3565653,15.7855179 L21.3565653,15.7855179 Z M19.70678,19.4502857 C19.4646333,19.8467679 18.9471735,19.9711607 18.5514311,19.7294464 C15.3851699,17.7978214 11.4000537,17.3614821 6.70685152,18.4316786 C6.2545975,18.5351786 5.80395349,18.2521607 5.70075134,17.800875 C5.59706619,17.3494286 5.87946333,16.8995893 6.33268336,16.7965714 C11.4686404,15.6244821 15.8742934,16.1289643 19.4280859,18.2966786 C19.8243113,18.5382321 19.9490877,19.0549286 19.70678,19.4502857 L19.70678,19.4502857 Z M13.5235063,0.0380892857 C6.07717352,0.0380892857 0.0405724508,6.06358929 0.0405724508,13.496625 C0.0405724508,20.9301429 6.07717352,26.9554821 13.5235063,26.9554821 C20.97,26.9554821 27.0062791,20.9301429 27.0062791,13.496625 C27.0062791,6.06358929 20.97,0.0380892857 13.5235063,0.0380892857 L13.5235063,0.0380892857 Z" id="Fill-1"></path>
                <path d="M36.722737,12.46275 C34.3948122,11.9086071 33.9802326,11.5196786 33.9802326,10.7026071 C33.9802326,9.930375 34.7086047,9.41094643 35.7915027,9.41094643 C36.8412343,9.41094643 37.8819499,9.8055 38.973381,10.61775 C39.0063864,10.6423393 39.0477639,10.6521429 39.0884973,10.6457143 C39.1292308,10.6396071 39.1651342,10.6174286 39.1891234,10.5836786 L40.3257961,8.98425 C40.3724866,8.91835714 40.3597674,8.82771429 40.2968157,8.77725 C38.9980143,7.73694643 37.5354741,7.23117857 35.8259571,7.23117857 C33.3123971,7.23117857 31.5566726,8.73691071 31.5566726,10.8912857 C31.5566726,13.2015536 33.0712165,14.0195893 35.6884615,14.6510357 C37.9160823,15.1632321 38.2920215,15.5921786 38.2920215,16.3594286 C38.2920215,17.2094464 37.531771,17.737875 36.3083184,17.737875 C34.9496243,17.737875 33.841127,17.2809643 32.6012522,16.2091607 C32.5705009,16.1828036 32.5283184,16.1705893 32.489356,16.1728393 C32.4484615,16.1762143 32.4109481,16.1951786 32.3848658,16.2265179 L31.1103757,17.7406071 C31.0569231,17.8034464 31.0636852,17.8973036 31.1253488,17.951625 C32.5680859,19.2371786 34.3421646,19.9163571 36.2567979,19.9163571 C38.9653309,19.9163571 40.7155814,18.4389107 40.7155814,16.1524286 C40.7155814,14.22 39.5589445,13.15125 36.722737,12.46275" id="Fill-2"></path>
                <path d="M48.8096243,15.0526607 C48.8096243,16.6843929 47.8027191,17.8230536 46.3609481,17.8230536 C44.9355993,17.8230536 43.8604293,16.6326429 43.8604293,15.0526607 C43.8604293,13.4728393 44.9355993,12.2822679 46.3609481,12.2822679 C47.7795349,12.2822679 48.8096243,13.447125 48.8096243,15.0526607 L48.8096243,15.0526607 Z M46.8434705,10.1709643 C45.6694454,10.1709643 44.7064937,10.6325357 43.9124329,11.5783393 L43.9124329,10.5137679 C43.9124329,10.4297143 43.8441682,10.36125 43.7599642,10.36125 L41.6756351,10.36125 C41.5914311,10.36125 41.5233274,10.4297143 41.5233274,10.5137679 L41.5233274,22.3426607 C41.5233274,22.4267143 41.5914311,22.4951786 41.6756351,22.4951786 L43.7599642,22.4951786 C43.8441682,22.4951786 43.9124329,22.4267143 43.9124329,22.3426607 L43.9124329,18.6089464 C44.7066547,19.4986607 45.6697674,19.9332321 46.8434705,19.9332321 C49.0248837,19.9332321 51.2331843,18.2569821 51.2331843,15.0526607 C51.2331843,11.8476964 49.0248837,10.1709643 46.8434705,10.1709643 L46.8434705,10.1709643 Z" id="Fill-3"></path>
                <path d="M56.8936852,17.8400893 C55.3994275,17.8400893 54.272898,16.6416429 54.272898,15.0526607 C54.272898,13.4570893 55.3604651,12.2989821 56.8592308,12.2989821 C58.3631485,12.2989821 59.4972451,13.4974286 59.4972451,15.0875357 C59.4972451,16.6829464 58.4022719,17.8400893 56.8936852,17.8400893 L56.8936852,17.8400893 Z M56.8936852,10.1709643 C54.0843649,10.1709643 51.8834705,12.3303214 51.8834705,15.0875357 C51.8834705,17.8146964 54.0692308,19.9513929 56.8592308,19.9513929 C59.6785331,19.9513929 61.8861896,17.7992679 61.8861896,15.0526607 C61.8861896,12.3152143 59.6936673,10.1709643 56.8936852,10.1709643 L56.8936852,10.1709643 Z" id="Fill-4"></path>
                <path d="M67.8854383,10.36125 L65.5916458,10.36125 L65.5916458,8.02028571 C65.5916458,7.93623214 65.523703,7.86792857 65.4394991,7.86792857 L63.3553309,7.86792857 C63.270966,7.86792857 63.2023792,7.93623214 63.2023792,8.02028571 L63.2023792,10.36125 L62.2001431,10.36125 C62.1161002,10.36125 62.0483184,10.4297143 62.0483184,10.5137679 L62.0483184,12.3020357 C62.0483184,12.3859286 62.1161002,12.4543929 62.2001431,12.4543929 L63.2023792,12.4543929 L63.2023792,17.0816786 C63.2023792,18.9515893 64.1347406,19.8996429 65.973542,19.8996429 C66.7212343,19.8996429 67.3415742,19.7455179 67.9261717,19.4146071 C67.9736673,19.3880893 68.0032916,19.3369821 68.0032916,19.2826607 L68.0032916,17.5797321 C68.0032916,17.5271786 67.9757603,17.4776786 67.9308408,17.4500357 C67.8854383,17.4215893 67.8289267,17.4201429 67.7823971,17.443125 C67.3808587,17.6448214 66.9926834,17.737875 66.5587835,17.737875 C65.8901431,17.737875 65.5916458,17.4349286 65.5916458,16.7555893 L65.5916458,12.4543929 L67.8854383,12.4543929 C67.9696422,12.4543929 68.037424,12.3859286 68.037424,12.3020357 L68.037424,10.5137679 C68.037424,10.4297143 67.9696422,10.36125 67.8854383,10.36125" id="Fill-5"></path>
                <path d="M75.8770841,10.3704107 L75.8770841,10.0828929 C75.8770841,9.23705357 76.2019857,8.85985714 76.9306798,8.85985714 C77.3652236,8.85985714 77.7142755,8.946 78.1051878,9.07617857 C78.1533274,9.09128571 78.2035599,9.08373214 78.2426834,9.05496429 C78.2829338,9.02619643 78.3056351,8.98007143 78.3056351,8.93121429 L78.3056351,7.17782143 C78.3056351,7.11096429 78.2624866,7.0515 78.1979249,7.03173214 C77.7849553,6.90926786 77.2565474,6.78326786 76.4653846,6.78326786 C74.5399642,6.78326786 73.5224329,7.86551786 73.5224329,9.91189286 L73.5224329,10.35225 L72.5210018,10.35225 C72.4369589,10.35225 72.3680501,10.4207143 72.3680501,10.5046071 L72.3680501,12.3020357 C72.3680501,12.3859286 72.4369589,12.4543929 72.5210018,12.4543929 L73.5224329,12.4543929 L73.5224329,19.5917143 C73.5224329,19.6757679 73.5903757,19.7440714 73.6744186,19.7440714 L75.7587478,19.7440714 C75.8429517,19.7440714 75.9115385,19.6757679 75.9115385,19.5917143 L75.9115385,12.4543929 L77.8577281,12.4543929 L80.8389982,19.5897857 C80.5005725,20.3395179 80.1677818,20.4886607 79.7134347,20.4886607 C79.3461896,20.4886607 78.9594633,20.3792143 78.5640429,20.1632143 C78.5268515,20.1428036 78.482898,20.1394286 78.4426476,20.1518036 C78.4028801,20.1659464 78.3693918,20.1953571 78.3524866,20.2340893 L77.6460107,21.7812857 C77.6123614,21.8544107 77.6410197,21.9402321 77.7115385,21.9781607 C78.4490877,22.3768929 79.1149911,22.5470893 79.9377102,22.5470893 C81.4768873,22.5470893 82.3276208,21.8312679 83.0777281,19.9059107 L86.6939893,10.5780536 C86.7120215,10.531125 86.7067084,10.47825 86.6778891,10.4364643 C86.6492308,10.3953214 86.6030233,10.3704107 86.5524687,10.3704107 L84.3824866,10.3704107 C84.3176029,10.3704107 84.2593202,10.4115536 84.238068,10.472625 L82.0151163,16.8107143 L79.5802862,10.4684464 C79.558068,10.4093036 79.5012343,10.3704107 79.4379606,10.3704107 L75.8770841,10.3704107" id="Fill-6"></path>
                <path d="M71.2440966,10.36125 L69.1596064,10.36125 C69.0754025,10.36125 69.0069767,10.4297143 69.0069767,10.5137679 L69.0069767,19.5917143 C69.0069767,19.6757679 69.0754025,19.7440714 69.1596064,19.7440714 L71.2440966,19.7440714 C71.3281395,19.7440714 71.3967263,19.6757679 71.3967263,19.5917143 L71.3967263,10.5137679 C71.3967263,10.4297143 71.3281395,10.36125 71.2440966,10.36125" id="Fill-7"></path>
                <path d="M70.2123971,6.22783929 C69.38678,6.22783929 68.7165295,6.89528571 68.7165295,7.71958929 C68.7165295,8.54421429 69.38678,9.21230357 70.2123971,9.21230357 C71.0378533,9.21230357 71.7072987,8.54421429 71.7072987,7.71958929 C71.7072987,6.89528571 71.0378533,6.22783929 70.2123971,6.22783929" id="Fill-8"></path>
                <path d="M88.558873,11.2643036 L88.1769767,11.2643036 L88.1769767,11.7504643 L88.558873,11.7504643 C88.7494991,11.7504643 88.8633274,11.6574107 88.8633274,11.5071429 C88.8633274,11.349 88.7494991,11.2643036 88.558873,11.2643036 L88.558873,11.2643036 Z M88.8064937,11.9577857 L89.2213953,12.5376429 L88.8715385,12.5376429 L88.4980143,12.0058393 L88.1769767,12.0058393 L88.1769767,12.5376429 L87.8841145,12.5376429 L87.8841145,11.0007321 L88.5707871,11.0007321 C88.9283721,11.0007321 89.1637567,11.1833036 89.1637567,11.4909107 C89.1637567,11.7429107 89.0178891,11.896875 88.8064937,11.9577857 L88.8064937,11.9577857 Z M88.4812701,10.4891786 C87.7298748,10.4891786 87.1612165,11.0854286 87.1612165,11.8155536 C87.1612165,12.5451964 87.7258497,13.1335714 88.473542,13.1335714 C89.2247764,13.1335714 89.7939177,12.5376429 89.7939177,11.8071964 C89.7939177,11.0773929 89.2289624,10.4891786 88.4812701,10.4891786 L88.4812701,10.4891786 Z M88.473542,13.2799821 C87.6485689,13.2799821 87.0066547,12.6186429 87.0066547,11.8155536 C87.0066547,11.0123036 87.656941,10.3435714 88.4812701,10.3435714 C89.3060823,10.3435714 89.9481574,11.00475 89.9481574,11.8071964 C89.9481574,12.6102857 89.2983542,13.2799821 88.473542,13.2799821 L88.473542,13.2799821 Z" id="Fill-9"></path>
            </g>
        </g>
    </g>
</svg>